# This file uses centimeters as units for non-parametric coordinates.

mtllib Mesh_FirePlace_a01.mtl
g default
v 4.120260 4.858702 -2.378834
v 2.378834 4.858702 -4.120260
v 0.000000 4.858702 -4.757668
v 0.000000 4.858702 4.757668
v 2.378834 4.858702 4.120260
v 4.120260 4.858702 2.378834
v 4.757668 4.858702 0.000000
v 3.979866 6.090077 -2.297777
v 2.297777 6.090077 -3.979866
v 0.000000 6.090077 -4.595554
v 0.000000 6.090077 4.595554
v 2.297777 6.090077 3.979866
v 3.979866 6.090077 2.297777
v 4.595554 6.090077 0.000000
v 3.568251 7.237535 -2.060131
v 2.060131 7.237535 -3.568251
v 0.000000 7.237535 -4.120260
v 0.000000 7.237535 4.120261
v 2.060131 7.237535 3.568251
v 3.568251 7.237535 2.060131
v 4.120260 7.237535 0.000000
v 2.913464 8.222881 -1.682089
v 1.682089 8.222881 -2.913464
v 0.000000 8.222881 -3.364180
v 0.000000 8.222881 3.364179
v 1.682089 8.222881 2.913465
v 2.913464 8.222881 1.682089
v 3.364180 8.222881 0.000000
v 2.060131 8.978963 -1.189417
v 1.189417 8.978963 -2.060131
v 0.000000 8.978963 -2.378834
v 0.000000 8.978963 2.378834
v 1.189417 8.978963 2.060131
v 2.060131 8.978963 1.189417
v 2.378834 8.978963 0.000000
v 1.066403 9.454256 -0.615688
v 0.615689 9.454256 -1.066402
v 0.000000 9.454256 -1.231375
v 0.000000 9.454256 1.231375
v 0.615689 9.454256 1.066402
v 1.066403 9.454256 0.615688
v 1.231375 9.454256 0.000000
v 3.655069 4.858702 -2.110254
v 2.110254 4.858702 -3.655069
v -0.143930 4.858702 -4.220510
v -0.143930 4.858702 4.220510
v 2.110254 4.858702 3.655068
v 3.655069 4.858702 2.110254
v 4.220510 4.858702 0.000000
v 0.001232 9.454256 0.000000
v -2.727587 0.000000 -5.000000
v 1.000000 0.000000 -5.000000
v -2.727587 12.000000 -5.000000
v 1.000000 12.000000 -5.000000
v -2.727587 12.000000 -6.999998
v 1.000000 12.000000 -6.999998
v -2.727587 0.000000 -6.999998
v 1.000000 0.000000 -6.999998
v -2.727587 0.000000 6.999999
v 1.000000 0.000000 6.999999
v -2.727587 12.000000 6.999999
v 1.000000 12.000000 6.999999
v -2.727587 12.000000 5.000000
v 1.000000 12.000000 5.000000
v -2.727587 0.000000 5.000000
v 1.000000 0.000000 5.000000
v -2.727587 12.000000 7.741877
v 1.825922 12.000000 7.741877
v -2.727587 12.539839 7.741877
v 1.825922 12.539839 7.741877
v -2.727587 12.539839 -7.741877
v 1.825922 12.539839 -7.741877
v -2.727587 12.000000 -7.741877
v 1.825922 12.000000 -7.741877
v 0.500000 0.000000 5.000000
v 0.500000 11.999999 5.000000
v 0.500000 11.999999 -5.000000
v 0.500000 0.000000 -5.000000
v 0.500000 7.000000 5.000000
v 0.500000 7.000000 -5.000000
v 0.500000 7.000000 4.000000
v 0.500000 0.000000 4.000000
v -2.727587 0.000000 4.000000
v -2.727587 7.000000 4.000000
v 0.500000 11.999999 4.000000
v 0.500000 7.000000 -4.000000
v 0.500000 0.000000 -4.000000
v -2.727587 0.000000 -4.000000
v -2.727587 7.000000 -4.000000
v 0.500000 12.000000 -4.000000
v 0.228136 0.000000 4.000000
v 0.228136 7.000000 4.000000
v 0.228136 7.000000 -4.000000
v 0.228136 0.000000 -4.000000
v 0.228136 5.772715 4.000000
v 0.228136 5.772715 -4.000000
v 0.228136 5.772715 3.649347
v 0.228136 0.000000 3.649347
v -1.111542 0.000000 3.652208
v -1.111542 5.772715 3.652208
v 0.228136 7.000000 3.649347
v 0.228136 5.772715 -3.649347
v 0.228136 0.000000 -3.649347
v -1.111542 0.000000 -3.649347
v -1.111542 5.772715 -3.649347
v 0.228136 7.000000 -3.649347
v -2.727587 0.000000 6.216084
v 3.000000 0.000000 6.216084
v -2.727587 0.261367 6.216084
v 3.000000 0.261367 6.216084
v -2.727587 0.261367 -6.216084
v 3.000000 0.261367 -6.216084
v -2.727587 0.000000 -6.216084
v 3.000000 0.000000 -6.216084
vt 0.840988 0.025627
vt 0.906030 0.090668
vt 0.888655 0.100700
vt 0.830957 0.043002
vt 0.752140 0.001820
vt 0.746764 0.021883
vt 0.840988 0.333406
vt 0.752140 0.357213
vt 0.746764 0.337150
vt 0.830957 0.316031
vt 0.906030 0.268365
vt 0.888655 0.258333
vt 0.929837 0.179517
vt 0.909774 0.179517
vt 0.958178 0.504472
vt 0.975012 0.487639
vt 0.998008 0.481477
vt 0.997962 0.527468
vt 0.975012 0.567298
vt 0.958178 0.550464
vt 0.998008 0.573459
vt 0.952017 0.527468
vt 0.565446 0.579511
vt 0.503495 0.579511
vt 0.379929 0.579515
vt 0.441537 0.579513
vt 0.751323 0.579515
vt 0.627381 0.579511
vt 0.689319 0.579513
vt 0.565472 0.540831
vt 0.503498 0.540816
vt 0.379769 0.540696
vt 0.441542 0.540771
vt 0.751322 0.540697
vt 0.627385 0.540816
vt 0.689323 0.540771
vt 0.836685 0.340249
vt 0.926506 0.340249
vt 0.154794 0.375829
vt 0.055348 0.375829
vt 0.001992 0.002334
vt 0.055348 0.002334
vt 0.160329 0.375829
vt 0.154794 0.002334
vt 0.926506 0.629406
vt 0.836685 0.629406
vt 0.160330 0.002334
vt 0.001992 0.375829
vt 0.150457 0.668502
vt 0.385130 0.895814
vt 0.758624 0.895814
vt 0.060636 0.668502
vt 0.060636 0.379344
vt 0.150457 0.379344
vt 0.752369 0.782219
vt 0.752369 0.891942
vt 0.379265 0.891942
vt 0.379265 0.782219
vt 0.758624 0.911892
vt 0.385130 0.911892
vt 0.259775 0.002334
vt 0.313131 0.002334
vt 0.313131 0.375829
vt 0.259775 0.375829
vt 0.558771 0.002334
vt 0.585449 0.002334
vt 0.585449 0.220206
vt 0.558771 0.220206
vt 0.558771 0.375829
vt 0.764358 0.811201
vt 0.874081 0.811201
vt 0.874081 0.824209
vt 0.764358 0.824209
vt 0.741068 0.003519
vt 0.741068 0.377014
vt 0.590382 0.377014
vt 0.590382 0.003519
vt 0.989413 0.826164
vt 0.879690 0.826164
vt 0.879690 0.813156
vt 0.989413 0.813156
vt 0.585449 0.375829
vt 0.318667 0.002334
vt 0.345345 0.002334
vt 0.345345 0.220206
vt 0.318667 0.220206
vt 0.345345 0.375829
vt 0.318667 0.375829
vt 0.364400 0.381562
vt 0.373755 0.381562
vt 0.772177 0.805252
vt 0.772177 0.636577
vt 0.849950 0.636577
vt 0.849950 0.805252
vt 0.996969 0.004251
vt 0.996969 0.345004
vt 0.934424 0.345138
vt 0.934424 0.004251
vt 0.932051 0.636577
vt 0.932051 0.805252
vt 0.854278 0.805252
vt 0.854278 0.636577
vt 0.373755 0.561236
vt 0.364400 0.561236
vt 0.364400 0.599434
vt 0.373755 0.599434
vt 0.001992 0.524614
vt 0.001992 0.896123
vt 0.301877 0.896123
vt 0.001992 0.385513
vt 0.034273 0.385513
vt 0.034273 0.524614
vt 0.968660 0.352281
vt 0.968660 0.491383
vt 0.301877 0.903908
vt 0.001992 0.903908
vt 0.160329 0.381562
vt 0.169684 0.381562
vt 0.169684 0.561236
vt 0.160329 0.561236
vt 0.169684 0.599434
vt 0.160329 0.599434
vt 0.767581 0.578996
vt 0.767581 0.758669
vt 0.572789 0.758669
vt 0.572789 0.578996
vt 0.375095 0.780264
vt 0.375095 0.889988
vt 0.001992 0.889988
vt 0.001992 0.780264
vt 0.525933 0.604069
vt 0.525933 0.775207
vt 0.154465 0.775207
vt 0.154465 0.604069
vt 0.936379 0.491383
vt 0.936379 0.352281
vt 0.764358 0.830899
vt 0.902372 0.830899
vt 0.902372 0.837197
vt 0.764358 0.837197
vt 0.902372 0.850881
vt 0.764358 0.850881
vt 0.764358 0.844583
vt 0.902372 0.844583
vt 0.627445 0.385766
vt 0.689415 0.385765
vt 0.689337 0.424513
vt 0.627397 0.424500
vt 0.751320 0.385764
vt 0.751320 0.424533
vt 0.379637 0.385764
vt 0.441565 0.385765
vt 0.441558 0.424513
vt 0.379265 0.424533
vt 0.503515 0.385766
vt 0.503509 0.424500
vt 0.565454 0.385766
vt 0.565454 0.424496
vt 0.689337 0.463260
vt 0.627397 0.463230
vt 0.751320 0.463309
vt 0.441558 0.463260
vt 0.379266 0.463308
vt 0.503509 0.463230
vt 0.565454 0.463220
vt 0.689337 0.502014
vt 0.627397 0.502012
vt 0.751320 0.502017
vt 0.441558 0.502014
vt 0.379265 0.502017
vt 0.503509 0.502012
vt 0.565456 0.502011
vn 0.701458 0.126150 -0.701458
vn 0.701458 0.126150 -0.701458
vn 0.701458 0.126150 -0.701458
vn 0.701458 0.126150 -0.701458
vn 0.256752 0.126150 -0.958209
vn 0.256752 0.126150 -0.958209
vn 0.256752 0.126150 -0.958209
vn 0.256752 0.126150 -0.958209
vn 0.256752 0.126150 0.958209
vn 0.256752 0.126150 0.958209
vn 0.256752 0.126150 0.958209
vn 0.256752 0.126150 0.958209
vn 0.701458 0.126150 0.701458
vn 0.701458 0.126150 0.701458
vn 0.701458 0.126150 0.701458
vn 0.701458 0.126150 0.701458
vn 0.958209 0.126150 0.256752
vn 0.958209 0.126150 0.256752
vn 0.958209 0.126150 0.256752
vn 0.958209 0.126150 0.256752
vn 0.958209 0.126150 -0.256752
vn 0.958209 0.126150 -0.256752
vn 0.958209 0.126150 -0.256752
vn 0.958209 0.126150 -0.256752
vn 0.656510 0.371470 -0.656510
vn 0.656510 0.371470 -0.656510
vn 0.656510 0.371470 -0.656510
vn 0.656510 0.371470 -0.656510
vn 0.240299 0.371471 -0.896809
vn 0.240299 0.371471 -0.896809
vn 0.240299 0.371471 -0.896809
vn 0.240299 0.371471 -0.896809
vn 0.240299 0.371470 0.896809
vn 0.240299 0.371470 0.896809
vn 0.240299 0.371471 0.896809
vn 0.240299 0.371470 0.896809
vn 0.656510 0.371470 0.656510
vn 0.656510 0.371470 0.656510
vn 0.656510 0.371470 0.656510
vn 0.656510 0.371470 0.656510
vn 0.896809 0.371471 0.240299
vn 0.896809 0.371471 0.240299
vn 0.896809 0.371471 0.240299
vn 0.896809 0.371471 0.240299
vn 0.896809 0.371471 -0.240299
vn 0.896809 0.371471 -0.240299
vn 0.896809 0.371471 -0.240299
vn 0.896809 0.371471 -0.240299
vn 0.568081 0.595456 -0.568081
vn 0.568081 0.595456 -0.568081
vn 0.568081 0.595456 -0.568081
vn 0.568081 0.595456 -0.568081
vn 0.207932 0.595456 -0.776013
vn 0.207932 0.595456 -0.776013
vn 0.207932 0.595456 -0.776013
vn 0.207932 0.595456 -0.776013
vn 0.207932 0.595456 0.776013
vn 0.207932 0.595456 0.776013
vn 0.207932 0.595456 0.776013
vn 0.207932 0.595456 0.776013
vn 0.568081 0.595456 0.568081
vn 0.568081 0.595456 0.568081
vn 0.568081 0.595456 0.568081
vn 0.568081 0.595456 0.568081
vn 0.776013 0.595456 0.207932
vn 0.776013 0.595456 0.207932
vn 0.776013 0.595456 0.207932
vn 0.776014 0.595456 0.207932
vn 0.776013 0.595456 -0.207932
vn 0.776013 0.595456 -0.207932
vn 0.776013 0.595456 -0.207932
vn 0.776013 0.595456 -0.207932
vn 0.439832 0.783005 -0.439832
vn 0.439832 0.783005 -0.439832
vn 0.439832 0.783005 -0.439832
vn 0.439832 0.783005 -0.439832
vn 0.160990 0.783005 -0.600821
vn 0.160990 0.783005 -0.600821
vn 0.160990 0.783005 -0.600821
vn 0.160990 0.783005 -0.600821
vn 0.160989 0.783005 0.600821
vn 0.160989 0.783005 0.600821
vn 0.160989 0.783005 0.600821
vn 0.160989 0.783005 0.600821
vn 0.439832 0.783005 0.439831
vn 0.439832 0.783005 0.439831
vn 0.439832 0.783005 0.439831
vn 0.439832 0.783005 0.439831
vn 0.600821 0.783005 0.160990
vn 0.600821 0.783005 0.160990
vn 0.600821 0.783005 0.160990
vn 0.600821 0.783005 0.160990
vn 0.600821 0.783005 -0.160990
vn 0.600821 0.783005 -0.160990
vn 0.600821 0.783005 -0.160990
vn 0.600821 0.783005 -0.160990
vn 0.278683 0.919060 -0.278683
vn 0.278683 0.919060 -0.278683
vn 0.278683 0.919060 -0.278683
vn 0.278683 0.919060 -0.278683
vn 0.102005 0.919060 -0.380687
vn 0.102005 0.919060 -0.380687
vn 0.102005 0.919060 -0.380687
vn 0.102005 0.919061 -0.380687
vn 0.102005 0.919060 0.380687
vn 0.102005 0.919061 0.380687
vn 0.102005 0.919061 0.380687
vn 0.102005 0.919060 0.380687
vn 0.278683 0.919060 0.278683
vn 0.278683 0.919060 0.278683
vn 0.278683 0.919060 0.278683
vn 0.278683 0.919060 0.278683
vn 0.380688 0.919061 0.102004
vn 0.380688 0.919061 0.102004
vn 0.380688 0.919061 0.102004
vn 0.380687 0.919061 0.102004
vn 0.380688 0.919061 -0.102004
vn 0.380688 0.919061 -0.102004
vn 0.380687 0.919061 -0.102004
vn 0.380688 0.919061 -0.102004
vn 0.000000 -1.000000 0.000000
vn 0.000000 -1.000000 0.000000
vn 0.000000 -1.000000 0.000000
vn 0.000000 -1.000000 0.000000
vn 0.000000 -1.000000 0.000001
vn 0.000000 -1.000000 0.000001
vn 0.000000 -1.000000 -0.000001
vn 0.000000 -1.000000 -0.000001
vn 0.000000 -1.000000 -0.000001
vn 0.000000 -1.000000 -0.000001
vn 0.000000 -1.000000 -0.000000
vn 0.000000 -1.000000 -0.000000
vn 0.000000 -1.000000 -0.000000
vn 0.000000 -1.000000 -0.000000
vn 0.000000 1.000000 0.000000
vn 0.000000 1.000000 0.000000
vn 0.000000 1.000000 0.000000
vn 0.000000 1.000000 0.000000
vn 0.000000 1.000000 -0.000001
vn 0.000000 1.000000 -0.000001
vn 0.000000 1.000000 -0.000001
vn 0.000000 1.000000 -0.000001
vn 0.000000 1.000000 0.000000
vn 0.000000 1.000000 0.000000
vn 0.000000 1.000000 0.000000
vn 0.000000 1.000000 0.000000
vn 0.000000 0.000000 1.000000
vn 0.000000 0.000000 1.000000
vn 0.000000 0.000000 1.000000
vn 0.000000 0.000000 1.000000
vn 0.000000 0.000000 -1.000000
vn 0.000000 0.000000 -1.000000
vn 0.000000 0.000000 -1.000000
vn 0.000000 0.000000 -1.000000
vn 1.000000 0.000000 0.000000
vn 1.000000 0.000000 0.000000
vn 1.000000 0.000000 0.000000
vn 1.000000 0.000000 0.000000
vn 0.000000 0.000000 1.000000
vn 0.000000 0.000000 1.000000
vn 0.000000 0.000000 1.000000
vn 0.000000 0.000000 1.000000
vn 0.000000 0.000000 -1.000000
vn 0.000000 0.000000 -1.000000
vn 0.000000 0.000000 -1.000000
vn 0.000000 0.000000 -1.000000
vn 1.000000 0.000000 0.000000
vn 1.000000 0.000000 0.000000
vn 1.000000 0.000000 0.000000
vn 1.000000 0.000000 0.000000
vn 0.000000 0.000000 1.000000
vn 0.000000 0.000000 1.000000
vn 0.000000 0.000000 1.000000
vn 0.000000 0.000000 1.000000
vn 0.000000 1.000000 0.000000
vn 0.000000 1.000000 0.000000
vn 0.000000 1.000000 0.000000
vn 0.000000 1.000000 0.000000
vn 0.000000 0.000000 -1.000000
vn 0.000000 0.000000 -1.000000
vn 0.000000 0.000000 -1.000000
vn 0.000000 0.000000 -1.000000
vn 0.000000 -1.000000 0.000000
vn 0.000000 -1.000000 0.000000
vn 0.000000 -1.000000 0.000000
vn 0.000000 -1.000000 0.000000
vn 1.000000 -0.000001 0.000000
vn 1.000000 -0.000001 0.000000
vn 1.000000 -0.000001 0.000000
vn 1.000000 -0.000001 0.000000
vn 1.000000 0.000000 0.000000
vn 1.000000 0.000000 0.000000
vn 1.000000 0.000000 0.000000
vn 1.000000 0.000000 0.000000
vn 1.000000 0.000000 0.000000
vn 1.000000 0.000000 0.000000
vn 1.000000 0.000000 0.000000
vn 1.000000 0.000000 0.000000
vn 1.000000 0.000000 0.000000
vn 1.000000 0.000000 0.000000
vn 1.000000 0.000000 0.000000
vn 1.000000 0.000000 0.000000
vn 0.000000 0.000000 -1.000000
vn 0.000000 0.000000 -1.000000
vn 0.000000 0.000000 -1.000000
vn 0.000000 0.000000 -1.000000
vn 0.000000 -1.000000 0.000000
vn 0.000000 -1.000000 0.000000
vn 0.000000 -1.000000 0.000000
vn 0.000000 -1.000000 0.000000
vn 0.000000 0.000000 1.000000
vn 0.000000 0.000000 1.000000
vn 0.000000 0.000000 1.000000
vn 0.000000 0.000000 1.000000
vn 1.000000 0.000000 0.000000
vn 1.000000 0.000000 0.000000
vn 1.000000 0.000000 0.000000
vn 1.000000 0.000000 0.000000
vn 1.000000 0.000000 0.000000
vn 1.000000 0.000000 0.000000
vn 1.000000 0.000000 0.000000
vn 1.000000 0.000000 0.000000
vn 1.000000 0.000000 0.000000
vn 1.000000 0.000000 0.000000
vn 1.000000 0.000000 0.000000
vn 1.000000 0.000000 0.000000
vn -0.002136 0.000000 -0.999998
vn -0.002136 0.000000 -0.999998
vn -0.002136 0.000000 -0.999998
vn -0.002136 0.000000 -0.999998
vn 0.000000 -1.000000 0.000000
vn 0.000000 -1.000000 0.000000
vn 0.000000 -1.000000 0.000000
vn 0.000000 -1.000000 0.000000
vn 0.000000 0.000000 1.000000
vn 0.000000 0.000000 1.000000
vn 0.000000 0.000000 1.000000
vn 0.000000 0.000000 1.000000
vn 1.000000 0.000000 0.000000
vn 1.000000 0.000000 0.000000
vn 1.000000 0.000000 0.000000
vn 1.000000 0.000000 0.000000
vn 0.000000 0.000000 1.000000
vn 0.000000 0.000000 1.000000
vn 0.000000 0.000000 1.000000
vn 0.000000 0.000000 1.000000
vn 0.000000 1.000000 0.000000
vn 0.000000 1.000000 0.000000
vn 0.000000 1.000000 0.000000
vn 0.000000 1.000000 0.000000
vn 0.000000 0.000000 -1.000000
vn 0.000000 0.000000 -1.000000
vn 0.000000 0.000000 -1.000000
vn 0.000000 0.000000 -1.000000
vn 1.000000 0.000000 0.000000
vn 1.000000 0.000000 0.000000
vn 1.000000 0.000000 0.000000
vn 1.000000 0.000000 0.000000
s off
g Mesh_FirePlace_a01
usemtl lambert5SG
f 1/145/1 2/146/2 9/147/3 8/148/4
f 2/146/5 3/149/6 10/150/7 9/147/8
f 4/151/9 5/152/10 12/153/11 11/154/12
f 5/152/13 6/155/14 13/156/15 12/153/16
f 6/155/17 7/157/18 14/158/19 13/156/20
f 7/157/21 1/145/22 8/148/23 14/158/24
f 8/148/25 9/147/26 16/159/27 15/160/28
f 9/147/29 10/150/30 17/161/31 16/159/32
f 11/154/33 12/153/34 19/162/35 18/163/36
f 12/153/37 13/156/38 20/164/39 19/162/40
f 13/156/41 14/158/42 21/165/43 20/164/44
f 14/158/45 8/148/46 15/160/47 21/165/48
f 15/160/49 16/159/50 23/166/51 22/167/52
f 16/159/53 17/161/54 24/168/55 23/166/56
f 18/163/57 19/162/58 26/169/59 25/170/60
f 19/162/61 20/164/62 27/171/63 26/169/64
f 20/164/65 21/165/66 28/172/67 27/171/68
f 21/165/69 15/160/70 22/167/71 28/172/72
f 22/167/73 23/166/74 30/36/75 29/35/76
f 23/166/77 24/168/78 31/34/79 30/36/80
f 25/170/81 26/169/82 33/33/83 32/32/84
f 26/169/85 27/171/86 34/31/87 33/33/88
f 27/171/89 28/172/90 35/30/91 34/31/92
f 28/172/93 22/167/94 29/35/95 35/30/96
f 29/35/97 30/36/98 37/29/99 36/28/100
f 30/36/101 31/34/102 38/27/103 37/29/104
f 32/32/105 33/33/106 40/26/107 39/25/108
f 33/33/109 34/31/110 41/24/111 40/26/112
f 34/31/113 35/30/114 42/23/115 41/24/116
f 35/30/117 29/35/118 36/28/119 42/23/120
s 1
f 2/1/121 1/2/122 43/3/123 44/4/124
f 3/5/125 2/1/121 44/4/124 45/6/126
f 5/7/127 4/8/128 46/9/129 47/10/130
f 6/11/131 5/7/127 47/10/130 48/12/132
f 7/13/133 6/11/131 48/12/132 49/14/134
f 1/2/122 7/13/133 49/14/134 43/3/123
s off
f 36/15/135 37/16/136 38/17/137 50/18/138
f 40/19/139 41/20/140 50/18/141 39/21/142
f 50/18/143 41/20/144 42/22/145 36/15/146
usemtl lambert3SG
f 51/37/147 52/38/148 54/45/149 53/46/150
f 55/39/151 56/40/152 58/42/153 57/44/154
f 52/41/155 58/42/156 56/40/157 54/48/158
f 59/47/159 60/61/160 62/64/161 61/43/162
f 63/49/163 64/52/164 66/53/165 65/54/166
f 60/61/167 66/62/168 64/63/169 62/64/170
usemtl lambert4SG
f 67/70/171 68/71/172 70/72/173 69/73/174
f 69/127/175 70/128/176 72/129/177 71/130/178
f 71/78/179 72/79/180 74/80/181 73/81/182
f 73/55/183 74/56/184 68/57/185 67/58/186
f 68/50/187 74/51/188 72/59/189 70/60/190
s 3
usemtl lambert3SG
f 87/65/191 78/66/192 80/67/193 86/68/194
f 90/69/195 86/68/194 80/67/193 77/82/196
f 75/83/197 82/84/198 81/85/199 79/86/200
f 79/86/200 81/85/199 85/87/201 76/88/202
f 85/87/201 81/85/199 86/68/194 90/69/195
s off
f 81/91/203 82/92/204 83/93/205 84/94/206
f 86/74/207 81/75/208 84/76/209 89/77/210
f 87/99/211 86/100/212 89/101/213 88/102/214
s 5
f 103/89/215 94/90/216 96/103/217 102/104/218
f 106/105/219 102/104/218 96/103/217 93/106/220
f 91/117/221 98/118/222 97/119/223 95/120/224
f 95/120/224 97/119/223 101/121/225 92/122/226
f 101/121/225 97/119/223 102/104/218 106/105/219
s off
f 97/107/227 98/110/228 99/111/229 100/112/230
f 102/95/231 97/96/232 100/97/233 105/98/234
f 103/113/235 102/114/236 105/135/237 104/136/238
f 104/123/239 105/124/240 100/125/241 99/126/242
f 107/137/243 108/138/244 110/139/245 109/140/246
f 109/131/247 110/132/248 112/133/249 111/134/250
f 111/141/251 112/142/252 114/143/253 113/144/254
f 108/108/255 114/109/256 112/115/257 110/116/258
