# This file uses centimeters as units for non-parametric coordinates.

mtllib Mesh_Ceiling_a01.mtl
g default
v 0.000000 38.570030 0.000000
v 0.000000 38.570034 11.967037
v 0.000000 38.570034 -11.967037
v -12.000000 38.570034 11.967037
v -12.000000 38.570030 0.000000
v -12.000000 38.570034 -11.967037
v 12.000000 38.570030 0.000000
v 12.000000 38.570034 11.967037
v 12.000000 38.570034 -11.967037
vt -0.000000 0.001373
vt -0.000000 0.500000
vt 0.500000 0.500000
vt 0.500000 0.001373
vt -0.000000 0.998627
vt 0.500000 0.998627
vt 1.000000 0.001373
vt 1.000000 0.998627
vt 1.000000 0.500000
vn 0.000000 -1.000000 0.000000
vn 0.000000 -1.000000 0.000000
vn 0.000000 -1.000000 0.000000
vn 0.000000 -1.000000 0.000000
vn 0.000000 -1.000000 -0.000000
vn 0.000000 -1.000000 -0.000000
vn 0.000000 -1.000000 -0.000000
vn 0.000000 -1.000000 -0.000000
vn 0.000000 -1.000000 0.000000
vn 0.000000 -1.000000 0.000000
vn 0.000000 -1.000000 0.000000
vn 0.000000 -1.000000 0.000000
vn 0.000000 -1.000000 -0.000000
vn 0.000000 -1.000000 -0.000000
vn 0.000000 -1.000000 -0.000000
vn 0.000000 -1.000000 -0.000000
s off
g Mesh_Ceiling_a01
usemtl lambert3SG
f 4/1/1 5/2/2 1/3/3 2/4/4
f 5/2/5 6/5/6 3/6/7 1/3/8
f 2/4/9 1/3/10 7/9/11 8/7/12
f 1/3/13 3/6/14 9/8/15 7/9/16
