# This file uses centimeters as units for non-parametric coordinates.

mtllib Mesh_Wood_Beam01.mtl
g default
v -0.000000 0.000000 0.969970
v 1.939939 0.000000 0.969970
v -0.000000 24.000000 0.969970
v 1.939939 24.000000 0.969970
v -0.000000 24.000000 -0.969970
v 1.939939 24.000000 -0.969970
v -0.000000 0.000000 -0.969970
v 1.939939 0.000000 -0.969970
vt 0.037309 0.523911
vt 0.037308 0.476089
vt 0.446026 0.523911
vt 0.446025 0.476089
vt 0.493848 0.523911
vt 0.493848 0.476089
vt 0.914869 0.523911
vt 0.914869 0.476089
vt 0.962692 0.523911
vt 0.962692 0.476089
vt 0.037309 0.428266
vt 0.446026 0.428266
vt 0.037308 0.571734
vt 0.446025 0.571734
vn 0.000000 0.000000 1.000000
vn 0.000000 0.000000 1.000000
vn 0.000000 0.000000 1.000000
vn 0.000000 0.000000 1.000000
vn 0.000000 1.000000 0.000000
vn 0.000000 1.000000 0.000000
vn 0.000000 1.000000 0.000000
vn 0.000000 1.000000 0.000000
vn 0.000000 0.000000 -1.000000
vn 0.000000 0.000000 -1.000000
vn 0.000000 0.000000 -1.000000
vn 0.000000 0.000000 -1.000000
vn 0.000000 -1.000000 0.000000
vn 0.000000 -1.000000 0.000000
vn 0.000000 -1.000000 0.000000
vn 0.000000 -1.000000 0.000000
vn 1.000000 0.000000 0.000000
vn 1.000000 0.000000 0.000000
vn 1.000000 0.000000 0.000000
vn 1.000000 0.000000 0.000000
vn -1.000000 0.000000 0.000000
vn -1.000000 0.000000 0.000000
vn -1.000000 0.000000 0.000000
vn -1.000000 0.000000 0.000000
s off
g Mesh_Wood_Beam01
usemtl lambert4SG
f 1/1/1 2/2/2 4/4/3 3/3/4
f 3/3/5 4/4/6 6/6/7 5/5/8
f 5/5/9 6/6/10 8/8/11 7/7/12
f 7/7/13 8/8/14 2/10/15 1/9/16
f 2/2/17 8/11/18 6/12/19 4/4/20
f 7/13/21 1/1/22 3/3/23 5/14/24
