# This file uses centimeters as units for non-parametric coordinates.

mtllib Mesh_Half_Floor_a01.mtl
g default
v 12.000000 -0.000000 12.000000
v 12.000000 0.000000 -12.000000
v 0.000000 0.000000 -12.000000
v 0.000000 -0.000000 12.000000
vt 1.000000 0.000000
vt 1.000000 1.000000
vt 0.499813 1.000000
vt 0.499813 0.000000
vn 0.000000 1.000000 0.000000
vn 0.000000 1.000000 0.000000
vn 0.000000 1.000000 0.000000
vn 0.000000 1.000000 0.000000
s off
g Mesh_Half_Floor_a01
usemtl lambert3SG
f 4/4/1 1/1/2 2/2/3 3/3/4
