# This file uses centimeters as units for non-parametric coordinates.

mtllib Mesh_Half_Wall_b01.mtl
g default
v -11.292892 1.000000 11.998695
v -11.292892 0.000000 11.998688
v -12.000000 1.000000 12.001286
v -12.000000 23.000000 12.001286
v -11.292892 23.000000 11.998695
v -11.292892 24.000000 11.998695
v -12.000000 24.000000 12.001286
v -12.000011 24.000000 0.000027
v -11.292881 24.000000 -0.000023
v -11.292881 23.000000 -0.000023
v -12.000011 23.000000 0.000027
v -12.000011 1.000000 0.000027
v -11.292881 1.000000 -0.000023
v -11.292881 0.000000 -0.000027
vt 0.000510 0.056102
vt 0.000527 0.014433
vt 0.000431 0.085566
vt 0.001119 0.899717
vt 0.000000 -0.000000
vt 0.000000 1.000000
vt 0.001143 0.929176
vt 0.001143 0.970823
vt 0.001119 1.000283
vt 0.500290 1.000284
vt 0.500293 0.970823
vt 0.500293 0.929176
vt 0.500291 1.000000
vt 0.500290 0.899716
vt 0.500291 0.085567
vt 0.500291 -0.000000
vt 0.500293 0.056101
vt 0.500293 0.014432
vn 0.000000 1.000000 0.000000
vn 0.000000 1.000000 0.000000
vn 0.000000 1.000000 0.000000
vn 0.000000 1.000000 0.000000
vn 1.000000 0.000000 0.000001
vn 1.000000 0.000000 0.000001
vn 1.000000 0.000000 0.000001
vn 1.000000 0.000000 0.000001
vn 0.000000 -1.000000 0.000000
vn 0.000000 -1.000000 0.000000
vn 0.000000 -1.000000 0.000000
vn 0.000000 -1.000000 0.000000
vn 1.000000 0.000000 -0.000001
vn 1.000000 0.000000 -0.000001
vn 1.000000 0.000000 -0.000001
vn 1.000000 0.000000 -0.000001
vn 0.000000 1.000000 0.000000
vn 0.000000 1.000000 0.000000
vn 0.000000 1.000000 0.000000
vn 0.000000 1.000000 0.000000
vn 1.000000 0.000000 0.000001
vn 1.000000 0.000000 0.000001
vn 1.000000 0.000000 0.000001
vn 1.000000 0.000000 0.000001
s off
g Mesh_Half_Wall_b01
usemtl lambert4SG
f 6/8/1 9/11/2 8/10/3 7/9/4
f 5/7/5 10/12/6 9/11/7 6/8/8
f 4/4/9 11/14/10 10/12/11 5/7/12
usemtl lambert5SG
f 3/5/13 12/16/14 11/13/15 4/6/16
usemtl lambert4SG
f 1/1/17 13/17/18 12/15/19 3/3/20
f 14/18/21 13/17/22 1/1/23 2/2/24
