# This file uses centimeters as units for non-parametric coordinates.

mtllib Mesh_Wall_d01.mtl
g default
v -12.000000 1.000000 12.000000
v -12.000000 23.000000 12.000000
v -12.000000 1.000000 -12.000000
v -12.000000 23.000000 -12.000000
v -11.000000 23.000000 12.000000
v -11.000000 23.000000 -12.000000
v -11.000000 24.000000 12.000000
v -11.000000 24.000000 -12.000000
v -12.000000 24.000000 12.000000
v -12.000000 24.000000 -12.000000
v -12.000000 23.000000 0.000000
v -11.000000 23.000000 0.000000
v -11.000000 24.000000 0.000000
v -12.000000 24.000000 0.000000
v -12.000000 22.000000 0.000000
v -12.000000 18.000000 7.000000
v -12.000000 18.000000 -7.000000
v -12.000000 13.000000 10.000000
v -12.000000 13.000000 -10.000000
v -12.000000 13.000000 -12.000000
v -12.000000 13.000000 12.000000
v -11.000000 1.000000 12.000000
v -11.000000 1.000000 -12.000000
v -11.000000 0.000000 12.000000
v -11.000000 0.000000 -12.000000
v -12.000000 0.000000 12.000000
v -12.000000 0.000000 -12.000000
v -12.000000 0.000000 0.000000
v -11.000000 -0.000000 0.000000
v -11.000000 13.000000 10.000000
v -11.000000 22.000000 0.000000
v -11.000000 18.000000 7.000000
v -11.000000 18.000000 -7.000000
v -11.000000 13.000000 -10.000000
v -11.000000 12.916174 9.441162
v -11.000000 21.413219 0.000000
v -11.000000 17.636755 6.608814
v -11.000000 17.636755 -6.608814
v -11.000000 12.916174 -9.441162
v -11.000000 1.000000 11.329391
v -11.000000 1.000000 -11.328484
v -11.000000 0.000000 11.329391
v -12.000000 0.000000 11.329391
v -12.000000 0.000000 -11.331211
v -11.000000 0.000000 -11.327576
v -11.000000 12.916174 3.000000
v -11.000000 18.628876 0.000320
v -11.000000 15.882626 3.000000
v -11.000000 15.882626 -3.000000
v -11.000000 12.916174 -3.000000
v -11.000000 1.000000 -3.000000
v -11.000000 -0.000000 -3.000000
v -11.000000 -0.000000 2.645737
v -11.000000 -0.000000 -2.645737
v -11.000000 1.000000 0.000000
v -11.000000 12.916174 2.645737
v -11.000000 18.078442 0.000282
v -11.000000 15.656488 2.645737
v -11.000000 15.656488 -2.645737
v -11.000000 12.916174 -2.645737
v -11.000000 1.000000 2.645737
v -11.000000 1.000000 -2.645737
v -12.000000 12.916174 2.645737
v -12.000000 18.078442 0.000282
v -12.000000 15.656488 2.645737
v -12.000000 15.656488 -2.645737
v -12.000000 12.916174 -2.645737
v -12.000000 1.000000 2.645737
v -12.000000 1.000000 0.000000
v -12.000000 1.000000 -2.645737
v -12.000000 12.916174 2.424259
v -12.000000 17.700474 0.000259
v -12.000000 15.481265 2.424259
v -12.000000 15.481265 -2.424259
v -12.000000 12.916174 -2.424259
v -12.000000 1.210045 2.424259
v -12.000000 1.210045 0.000000
v -12.000000 1.210045 -2.424259
v -12.145506 12.916174 2.424259
v -12.145506 12.916174 0.000259
v -12.145508 17.700474 0.000259
v -12.145506 15.481265 2.424259
v -12.145506 15.481265 -2.424259
v -12.145506 12.916174 -2.424259
v -12.145506 1.210045 2.424259
v -12.145506 1.210045 0.000000
v -12.145506 1.210045 -2.424259
v -11.000000 -0.000000 0.000000
v -11.000000 1.000000 3.000000
v -11.000000 -0.000000 3.000000
v -12.000000 0.000000 3.000000
v -12.000000 0.000000 2.645737
v -12.000000 0.000000 -2.645737
v -12.000000 0.000000 -3.000000
v -12.000000 17.636755 6.608814
v -12.000000 21.413219 0.000000
v -12.000000 15.882626 3.000000
v -12.000000 18.628876 0.000320
v -12.000000 12.916174 9.441162
v -12.000000 12.916174 3.000000
v -12.000000 17.636755 -6.608814
v -12.000000 12.916174 -9.441162
v -12.000000 15.882626 -3.000000
v -12.000000 12.916174 -3.000000
v -12.000000 1.000000 11.329391
v -12.000000 1.000000 3.000000
v -12.000000 1.000000 -11.328484
v -12.000000 1.000000 -3.000000
vt -0.000008 0.872423
vt 0.000000 1.000000
vt 0.208333 0.782609
vt 0.500000 0.872424
vt 0.500000 0.914697
vt -0.000002 0.915303
vt 0.500000 0.957374
vt 0.000004 0.958394
vt 0.500000 0.999991
vt 0.000008 0.999993
vt 0.999999 0.872423
vt 0.500000 0.956522
vt 0.500000 1.000000
vt 1.000000 1.000000
vt 1.000000 0.915303
vt 1.000001 0.958394
vt 1.000001 0.999993
vt 0.791667 0.782609
vt 0.916667 0.565217
vt 1.000000 0.565217
vt 0.000000 0.043478
vt 0.027186 0.483814
vt 0.138522 0.785911
vt 0.138496 0.813147
vt 0.027248 0.524233
vt 0.500027 0.484047
vt 0.389695 0.484045
vt 0.389730 0.442349
vt 0.000794 0.524020
vt 0.500017 0.442351
vt 0.972840 0.443306
vt 0.000731 0.483834
vt 0.972785 0.483815
vt 0.626179 0.484037
vt 0.139358 0.697165
vt 0.139385 0.669932
vt 0.999331 0.524196
vt 0.996470 0.848861
vt 0.761307 0.848906
vt 0.760303 0.813187
vt 0.996632 0.813203
vt 0.580542 0.848947
vt 0.580391 0.813131
vt 0.581405 0.732965
vt 0.762170 0.732925
vt 0.761166 0.697205
vt 0.581254 0.697150
vt 0.138524 0.848980
vt 0.139387 0.732998
vt 0.772675 0.785730
vt 0.996473 0.786014
vt 0.591728 0.786013
vt 0.773538 0.669828
vt 0.592591 0.669984
vt 0.972818 0.524234
vt 0.000669 0.443648
vt 0.083333 0.565217
vt 0.000000 0.565217
vt 1.000000 0.043478
vt 0.626132 0.442347
vt 0.102771 0.479818
vt 0.626238 0.525488
vt 0.373837 0.484038
vt 0.501332 0.991936
vt 0.361089 0.699256
vt 0.348023 0.852747
vt 0.360900 0.842565
vt 0.501338 0.970143
vt 0.347685 0.695210
vt 0.360301 0.695200
vt 0.654956 0.695215
vt 0.654627 0.852715
vt 0.515402 0.116754
vt 0.340482 0.116802
vt 0.340464 0.050687
vt 0.515384 0.050640
vt 0.039823 0.410988
vt 0.101196 0.410988
vt 0.690305 0.050593
vt 0.690323 0.116707
vt 0.750261 0.582670
vt 0.511844 0.581881
vt 0.541556 0.539173
vt 0.750239 0.539187
vt 0.991897 0.205159
vt 0.813477 0.205159
vt 0.099622 0.389803
vt 0.988632 0.582928
vt 0.958946 0.539172
vt 0.039823 0.389803
vt 0.813563 0.183975
vt 0.977433 0.183975
vt 0.541232 0.489711
vt 0.750214 0.489334
vt 0.641752 0.842530
vt 0.958167 0.489746
vt 0.642342 0.695202
vt 0.348135 0.015647
vt 0.501338 0.013085
vt 0.501358 0.025235
vt 0.361003 0.027678
vt 0.654488 0.015618
vt 0.641620 0.027656
vt 0.368435 0.838816
vt 0.501254 0.962079
vt 0.368698 0.695196
vt 0.634209 0.838887
vt 0.633967 0.695187
vt 0.813391 0.285646
vt 0.988637 0.621808
vt 0.811870 0.479818
vt 0.812038 0.410988
vt 0.988361 0.410988
vt 0.987124 0.479818
vt 0.099443 0.285646
vt 0.773630 0.635038
vt 0.750257 0.621949
vt 0.997427 0.635615
vt 0.373760 0.525490
vt 0.999245 0.443332
vt 0.591819 0.751557
vt 0.373893 0.442347
vt 0.494340 0.699256
vt 0.494340 0.974601
vt 0.361089 0.846882
vt 0.627620 0.699256
vt 0.627620 0.846882
vt 0.361089 0.025546
vt 0.494354 0.025546
vt 0.627620 0.025546
vt 0.100212 0.205159
vt 0.100980 0.183975
vt 0.041180 0.205159
vt 0.041180 0.183975
vt 0.813563 0.114354
vt 0.977433 0.114354
vt 0.100980 0.114353
vt 0.992838 0.285647
vt 0.139474 0.635370
vt 0.976076 0.389803
vt 0.812206 0.389803
vt 0.976076 0.320182
vt 0.812206 0.320182
vt 0.099622 0.320182
vt 0.515420 0.182868
vt 0.340500 0.182916
vt 0.690341 0.182821
vt 0.501286 0.033649
vt 0.368356 0.030425
vt 0.634333 0.030495
vt 0.027123 0.443306
vt 0.610317 0.442349
vt 0.999288 0.483764
vt 0.610314 0.484044
vt 0.373685 0.567242
vt 0.027311 0.566737
vt 0.972783 0.566739
vt 0.626298 0.567240
vt 0.592681 0.635576
vt 0.138611 0.751352
vt 0.997494 0.697221
vt 0.997336 0.669965
vt 0.997333 0.732880
vt 0.500000 0.931010
vt 0.224633 0.766815
vt 0.375000 0.690549
vt 0.499987 0.809951
vt 0.106618 0.561573
vt 0.375000 0.561573
vt 0.893382 0.561573
vt 0.775367 0.766815
vt 0.625000 0.690549
vt 0.625000 0.561573
vt 0.027942 0.043478
vt 0.375000 0.043478
vt 0.972020 0.043478
vt 0.625000 0.043478
vt 0.772767 0.751020
vt 0.996564 0.751597
vt 0.511849 0.620761
vn 1.000000 0.000000 0.000000
vn 1.000000 0.000000 0.000000
vn 1.000000 0.000000 0.000000
vn 1.000000 0.000000 0.000000
vn 0.000000 -1.000000 0.000000
vn 0.000000 -1.000000 0.000000
vn 0.000000 -1.000000 0.000000
vn 0.000000 -1.000000 0.000000
vn 1.000000 0.000000 0.000000
vn 1.000000 0.000000 0.000000
vn 1.000000 0.000000 0.000000
vn 1.000000 0.000000 0.000000
vn 0.000000 1.000000 0.000000
vn 0.000000 1.000000 0.000000
vn 0.000000 1.000000 0.000000
vn 0.000000 1.000000 0.000000
vn 1.000000 0.000000 0.000000
vn 1.000000 0.000000 0.000000
vn 1.000000 0.000000 0.000000
vn 1.000000 0.000000 0.000000
vn 0.000000 -1.000000 0.000000
vn 0.000000 -1.000000 0.000000
vn 1.000000 0.000000 0.000000
vn 1.000000 0.000000 0.000000
vn 0.000000 1.000000 0.000000
vn 0.000000 1.000000 0.000000
vn 1.000000 0.000000 0.000000
vn 1.000000 0.000000 0.000000
vn 1.000000 0.000000 0.000000
vn 1.000000 0.000000 0.000000
vn 1.000000 0.000000 0.000000
vn 1.000000 0.000000 0.000000
vn 1.000000 0.000000 0.000000
vn 1.000000 0.000000 0.000000
vn -0.000000 -1.000000 -0.000000
vn -0.000000 -1.000000 -0.000000
vn -0.000000 -1.000000 -0.000000
vn -0.000000 -1.000000 -0.000000
vn -0.000000 -1.000000 -0.000000
vn -0.000000 -1.000000 -0.000000
vn -0.000000 -1.000000 -0.000000
vn -0.000000 -1.000000 -0.000000
vn 1.000000 0.000000 0.000000
vn 1.000000 0.000000 0.000000
vn 1.000000 0.000000 0.000000
vn 1.000000 0.000000 0.000000
vn 0.000000 0.868243 0.496139
vn 0.000000 0.868243 0.496139
vn 0.000000 0.868243 0.496139
vn 0.000000 0.868243 0.496139
vn 0.000000 0.514496 0.857493
vn 0.000000 0.514496 0.857493
vn 0.000000 0.514496 0.857493
vn 0.000000 0.514496 0.857493
vn 0.000000 0.514496 -0.857493
vn 0.000000 0.514496 -0.857493
vn 0.000000 0.514496 -0.857493
vn 0.000000 0.514496 -0.857493
vn 0.000000 0.868243 -0.496139
vn 0.000000 0.868243 -0.496139
vn 0.000000 0.868243 -0.496139
vn 0.000000 0.868243 -0.496139
vn 0.000000 0.164399 0.986394
vn 0.000000 0.164399 0.986394
vn 0.000000 0.164399 0.986394
vn 0.000000 0.164399 0.986394
vn 0.000000 0.164399 -0.986394
vn 0.000000 0.164399 -0.986394
vn 0.000000 0.164399 -0.986394
vn 0.000000 0.164399 -0.986394
vn 1.000000 0.000000 0.000000
vn 1.000000 0.000000 0.000000
vn 1.000000 0.000000 0.000000
vn 1.000000 0.000000 0.000000
vn 1.000000 0.000000 0.000000
vn 1.000000 0.000000 0.000000
vn 1.000000 0.000000 0.000000
vn 1.000000 0.000000 0.000000
vn 1.000000 0.000000 0.000000
vn 1.000000 0.000000 0.000000
vn 1.000000 0.000000 0.000000
vn 1.000000 0.000000 0.000000
vn 1.000000 -0.000001 0.000000
vn 1.000000 -0.000001 0.000000
vn 1.000000 -0.000001 0.000000
vn 1.000000 -0.000001 0.000000
vn 1.000000 0.000000 0.000000
vn 1.000000 0.000000 0.000000
vn 1.000000 0.000000 0.000000
vn 1.000000 0.000000 0.000000
vn 1.000000 0.000000 0.000000
vn 1.000000 0.000000 0.000000
vn 1.000000 0.000000 0.000000
vn 1.000000 0.000000 0.000000
vn -0.000000 -1.000000 0.000000
vn -0.000000 -1.000000 0.000000
vn -0.000000 -1.000000 0.000000
vn -0.000000 -1.000000 0.000000
vn -0.000000 -1.000000 -0.000000
vn -0.000000 -1.000000 -0.000000
vn 1.000000 0.000000 0.000000
vn 1.000000 0.000000 0.000000
vn 1.000000 0.000000 0.000000
vn 1.000000 0.000000 0.000000
vn 1.000000 0.000000 0.000000
vn 1.000000 0.000000 0.000000
vn 1.000000 0.000000 0.000000
vn 1.000000 0.000000 0.000000
vn 1.000000 0.000000 0.000000
vn 1.000000 0.000000 0.000000
vn 1.000000 0.000000 0.000000
vn 1.000000 0.000000 0.000000
vn 1.000000 0.000000 0.000000
vn 1.000000 0.000000 0.000000
vn 1.000000 0.000000 0.000000
vn 1.000000 0.000000 0.000000
vn 1.000000 0.000000 0.000000
vn 1.000000 0.000000 0.000000
vn 1.000000 0.000000 0.000000
vn 1.000000 0.000000 0.000000
vn 1.000000 0.000000 0.000000
vn 1.000000 0.000000 0.000000
vn 1.000000 0.000000 0.000000
vn 1.000000 0.000000 0.000000
vn 1.000000 0.000000 0.000000
vn 1.000000 0.000000 0.000000
vn 1.000000 0.000000 0.000000
vn 1.000000 0.000000 0.000000
vn 1.000000 0.000000 -0.000000
vn 1.000000 0.000000 -0.000000
vn 1.000000 0.000000 0.000000
vn 1.000000 0.000000 -0.000000
vn 1.000000 0.000000 0.000000
vn 1.000000 0.000000 0.000000
vn 1.000000 0.000000 0.000000
vn 1.000000 0.000000 0.000000
vn 1.000000 0.000000 0.000000
vn 1.000000 0.000000 0.000000
vn 1.000000 0.000000 0.000000
vn 1.000000 0.000000 0.000000
vn 1.000000 0.000000 0.000000
vn 1.000000 0.000000 0.000000
vn 1.000000 0.000000 0.000000
vn 1.000000 0.000000 0.000000
vn 1.000000 0.000000 0.000000
vn 1.000000 0.000000 0.000000
vn 1.000000 0.000000 0.000000
vn 1.000000 0.000000 0.000000
vn 1.000000 0.000000 0.000000
vn 1.000000 0.000000 0.000000
vn 1.000000 0.000000 0.000000
vn 1.000000 0.000000 0.000000
vn 1.000000 0.000000 0.000000
vn 1.000000 0.000000 0.000000
vn 1.000000 0.000000 0.000000
vn 1.000000 0.000000 0.000000
vn 1.000000 0.000000 0.000000
vn 1.000000 0.000000 0.000000
vn 1.000000 0.000000 0.000000
vn 1.000000 0.000000 0.000000
vn 1.000000 0.000000 0.000000
vn 1.000000 0.000000 0.000000
vn 1.000000 0.000000 0.000000
vn 1.000000 0.000000 0.000000
vn 1.000000 0.000000 0.000000
vn 1.000000 0.000000 0.000000
vn 1.000000 0.000000 0.000000
vn 1.000000 0.000000 0.000000
vn 1.000000 0.000000 0.000000
vn 1.000000 0.000000 0.000000
vn 1.000000 0.000000 0.000000
vn 0.000000 -0.737577 -0.675263
vn 0.000000 -0.737577 -0.675263
vn 0.000000 -0.737577 -0.675263
vn 0.000000 -0.737577 -0.675263
vn 0.000000 0.000000 -1.000000
vn 0.000000 0.000000 -1.000000
vn 0.000000 0.000000 -1.000000
vn 0.000000 0.000000 -1.000000
vn 0.000000 0.000000 1.000000
vn 0.000000 0.000000 1.000000
vn 0.000000 0.000000 1.000000
vn 0.000000 0.000000 1.000000
vn 0.000000 -0.737649 0.675185
vn 0.000000 -0.737649 0.675185
vn 0.000000 -0.737649 0.675185
vn 0.000000 -0.737649 0.675185
vn 0.000000 1.000000 0.000000
vn 0.000000 1.000000 0.000000
vn 0.000000 1.000000 0.000000
vn 0.000000 1.000000 0.000000
vn 0.000000 0.000000 -1.000000
vn 0.000000 0.000000 -1.000000
vn 0.000000 0.000000 -1.000000
vn 0.000000 0.000000 -1.000000
vn 0.000000 0.000000 1.000000
vn 0.000000 0.000000 1.000000
vn 0.000000 0.000000 1.000000
vn 0.000000 0.000000 1.000000
vn 0.000000 1.000000 0.000000
vn 0.000000 1.000000 0.000000
vn 0.000000 1.000000 0.000000
vn 0.000000 1.000000 0.000000
vn 1.000000 0.000000 0.000000
vn 1.000000 0.000000 0.000000
vn 1.000000 0.000000 0.000000
vn 1.000000 0.000000 0.000000
vn 1.000000 0.000000 0.000000
vn 1.000000 0.000000 0.000000
vn 1.000000 0.000000 0.000000
vn 1.000000 0.000000 0.000000
vn 1.000000 0.000000 0.000000
vn 1.000000 0.000000 0.000000
vn 1.000000 0.000000 0.000000
vn 1.000000 0.000000 0.000000
vn 1.000000 0.000000 0.000000
vn 1.000000 0.000000 0.000000
vn 1.000000 0.000000 0.000000
vn 1.000000 0.000000 0.000000
vn 1.000000 0.000000 0.000000
vn 1.000000 0.000000 0.000000
vn 1.000000 0.000000 0.000000
vn 1.000000 0.000000 0.000000
vn 1.000000 0.000000 0.000000
vn 1.000000 0.000000 0.000000
vn 1.000000 0.000000 0.000000
vn 1.000000 0.000000 0.000000
vn 1.000000 0.000000 0.000000
vn 1.000000 0.000000 0.000000
vn 1.000000 0.000000 0.000000
vn 1.000000 0.000000 0.000000
vn 1.000000 0.000000 0.000000
vn 1.000000 0.000000 0.000000
vn 1.000000 0.000000 0.000000
vn 1.000000 0.000000 0.000000
vn 0.000000 -0.737577 -0.675263
vn 0.000000 -0.737577 -0.675263
vn 0.000000 -0.737577 -0.675263
vn 0.000000 -0.737577 -0.675263
vn 0.000000 0.000000 -1.000000
vn 0.000000 0.000000 -1.000000
vn 0.000000 0.000000 -1.000000
vn 0.000000 0.000000 -1.000000
vn 0.000000 0.000000 1.000000
vn 0.000000 0.000000 1.000000
vn 0.000000 0.000000 1.000000
vn 0.000000 0.000000 1.000000
vn 0.000000 -0.737648 0.675185
vn 0.000000 -0.737648 0.675185
vn 0.000000 -0.737648 0.675185
vn 0.000000 -0.737648 0.675185
vn 0.000000 1.000000 0.000000
vn 0.000000 1.000000 0.000000
vn 0.000000 1.000000 0.000000
vn 0.000000 1.000000 0.000000
vn 0.000000 0.000000 -1.000000
vn 0.000000 0.000000 -1.000000
vn 0.000000 0.000000 -1.000000
vn 0.000000 0.000000 -1.000000
vn 0.000000 0.000000 1.000000
vn 0.000000 0.000000 1.000000
vn 0.000000 0.000000 1.000000
vn 0.000000 0.000000 1.000000
vn 0.000000 1.000000 0.000000
vn 0.000000 1.000000 0.000000
vn 0.000000 1.000000 0.000000
vn 0.000000 1.000000 0.000000
vn -0.000000 -1.000000 0.000000
vn -0.000000 -1.000000 0.000000
vn -0.000000 -1.000000 -0.000000
vn -0.000000 -1.000000 -0.000000
vn 0.000000 -0.868243 -0.496139
vn 0.000000 -0.868243 -0.496139
vn 0.000000 -0.868243 -0.496139
vn 0.000000 -0.868243 -0.496139
vn 0.000000 0.737577 0.675263
vn 0.000000 0.737577 0.675263
vn 0.000000 0.737577 0.675263
vn 0.000000 0.737577 0.675263
vn 0.000000 -0.514496 -0.857493
vn 0.000000 -0.514496 -0.857493
vn 0.000000 -0.514496 -0.857493
vn 0.000000 -0.514496 -0.857493
vn 0.000000 0.000000 1.000000
vn 0.000000 0.000000 1.000000
vn 0.000000 0.000000 1.000000
vn 0.000000 0.000000 1.000000
vn 0.000000 -0.514496 0.857493
vn 0.000000 -0.514496 0.857493
vn 0.000000 -0.514496 0.857493
vn 0.000000 -0.514496 0.857493
vn 0.000000 0.000000 -1.000000
vn 0.000000 0.000000 -1.000000
vn 0.000000 0.000000 -1.000000
vn 0.000000 0.000000 -1.000000
vn 0.000000 -0.868243 0.496139
vn 0.000000 -0.868243 0.496139
vn 0.000000 -0.868243 0.496139
vn 0.000000 -0.868243 0.496139
vn 0.000000 0.737649 -0.675184
vn 0.000000 0.737649 -0.675184
vn 0.000000 0.737649 -0.675184
vn 0.000000 0.737649 -0.675184
vn 0.000000 -0.156507 -0.987677
vn 0.000000 -0.156507 -0.987677
vn 0.000000 -0.156507 -0.987677
vn 0.000000 -0.156507 -0.987677
vn 0.000000 1.000000 0.000000
vn 0.000000 1.000000 0.000000
vn 0.000000 1.000000 0.000000
vn 0.000000 1.000000 0.000000
vn 0.000000 0.000000 1.000000
vn 0.000000 0.000000 1.000000
vn 0.000000 0.000000 1.000000
vn 0.000000 0.000000 1.000000
vn 0.000000 -0.156433 0.987689
vn 0.000000 -0.156433 0.987689
vn 0.000000 -0.156433 0.987689
vn 0.000000 -0.156433 0.987689
vn 0.000000 0.000000 -1.000000
vn 0.000000 0.000000 -1.000000
vn 0.000000 0.000000 -1.000000
vn 0.000000 0.000000 -1.000000
vn 0.000000 1.000000 0.000000
vn 0.000000 1.000000 0.000000
vn 0.000000 1.000000 0.000000
vn 0.000000 1.000000 0.000000
s 1
g Mesh_Wall_d01
usemtl lambert5SG
f 2/2/1 16/3/2 15/12/3 11/13/4
s 2
usemtl lambert4SG
f 2/1/5 11/4/6 12/5/7 5/6/8
s 3
f 5/6/9 12/5/10 13/7/11 7/8/12
s 4
f 7/8/13 13/7/14 14/9/15 9/10/16
s 1
usemtl lambert5SG
f 4/14/17 17/18/18 19/19/19 20/20/20
s 2
usemtl lambert4SG
f 12/5/7 11/4/6 4/11/21 6/15/22
s 3
f 13/7/11 12/5/10 6/15/23 8/16/24
s 4
f 14/9/15 13/7/14 8/16/25 10/17/26
s 1
usemtl lambert5SG
f 1/21/27 18/57/28 21/58/29
f 11/13/4 15/12/3 17/18/18 4/14/17
f 20/20/20 19/19/19 3/59/30
f 21/58/29 18/57/28 16/3/2 2/2/1
s 5
usemtl lambert4SG
f 42/22/31 40/25/32 22/29/33 24/32/34
s 6
f 29/26/35 53/27/36 92/28/37 28/30/38
f 44/31/39 45/33/40 52/34/41 94/60/42
s 8
f 23/37/43 41/55/44 45/33/45 25/153/46
s off
f 15/38/47 16/39/48 32/40/49 31/41/50
f 16/39/51 18/42/52 30/43/53 32/40/54
f 19/44/55 17/45/56 33/46/57 34/47/58
f 17/45/59 15/163/60 31/161/61 33/46/62
f 18/42/63 1/48/64 22/24/65 30/43/66
f 3/49/67 19/44/68 34/47/69 23/35/70
f 31/41/71 32/40/72 37/50/73 36/51/74
f 32/40/75 30/43/76 35/52/77 37/50/78
f 34/47/79 33/46/80 38/53/81 39/54/82
f 33/46/83 31/161/84 36/162/85 38/53/86
f 30/43/87 22/24/88 40/23/89 35/52/90
f 23/35/91 34/47/92 39/54/93 41/36/94
s 6
f 43/151/95 42/22/96 24/32/97 26/56/98
f 25/153/99 45/33/40 44/31/39 27/120/100
s 8
f 45/33/45 41/55/44 51/62/101 52/34/102
s off
usemtl lambert5SG
f 96/164/103 95/165/104 97/166/105 98/167/106
f 95/165/107 99/168/108 100/169/109 97/166/110
f 102/170/111 101/171/112 103/172/113 104/173/114
f 101/171/115 96/164/116 98/167/117 103/172/118
f 99/168/119 105/174/120 106/175/121 100/169/122
f 107/176/123 102/170/124 104/173/125 108/177/126
s 5
usemtl lambert4SG
f 90/63/127 89/119/128 40/25/32 42/22/31
s 10
usemtl blinn1SG
f 79/65/129 80/123/130 81/124/131 82/125/132
f 84/126/133 83/127/134 81/124/131 80/123/130
f 85/128/135 86/129/136 80/123/130 79/65/129
f 87/130/137 84/126/133 80/123/130 86/129/136
s 11
usemtl lambert4SG
f 55/73/138 61/74/139 53/75/140 88/76/141
f 52/77/142 51/78/143 62/87/144 54/90/145
s off
f 47/81/146 48/82/147 58/83/148 57/84/149
f 48/85/150 46/86/151 56/91/152 58/92/153
f 50/112/154 49/113/155 59/140/156 60/141/157
f 49/88/158 47/81/159 57/84/160 59/89/161
f 46/86/162 89/131/163 61/132/164 56/91/165
f 51/78/166 50/112/167 60/141/168 62/87/169
s 11
f 61/132/139 89/131/170 90/133/171 53/134/140
f 54/79/145 62/80/144 55/73/138 88/76/141
s off
f 57/84/172 58/83/173 65/93/174 64/94/175
f 58/92/176 56/91/177 63/135/178 65/136/179
f 60/141/180 59/140/181 66/142/182 67/143/183
f 59/89/184 57/84/185 64/94/186 66/96/187
f 61/74/188 55/73/189 69/145/190 68/146/191
f 56/91/192 61/132/193 68/137/194 63/135/195
f 62/87/196 60/141/197 67/143/198 70/144/199
f 55/73/200 62/80/201 70/147/202 69/145/203
usemtl lambert3SG
f 64/64/204 65/66/205 73/67/206 72/68/207
f 65/66/208 63/69/209 71/70/210 73/67/211
f 67/71/212 66/72/213 74/95/214 75/97/215
f 66/72/216 64/64/217 72/68/218 74/95/219
f 68/98/220 69/99/221 77/100/222 76/101/223
f 63/69/224 68/98/225 76/101/226 71/70/227
f 70/102/228 67/71/229 75/97/230 78/103/231
f 69/99/232 70/102/233 78/103/234 77/100/235
f 72/68/236 73/67/237 82/104/238 81/105/239
f 73/67/240 71/70/241 79/106/242 82/104/243
f 75/97/244 74/95/245 83/107/246 84/108/247
f 74/95/248 72/68/249 81/105/250 83/107/251
f 76/101/252 77/100/253 86/148/254 85/149/255
f 71/70/256 76/101/257 85/149/258 79/106/259
f 78/103/260 75/97/261 84/108/262 87/150/263
f 77/100/264 78/103/265 87/150/266 86/148/267
s 6
usemtl lambert4SG
f 91/122/268 90/63/269 42/22/96 43/151/95
f 92/28/37 53/27/36 90/63/269 91/122/268
f 93/152/270 54/154/271 29/26/35 28/30/38
f 94/60/42 52/34/41 54/154/271 93/152/270
s off
f 36/51/272 37/50/273 95/178/274 96/179/275
f 48/82/276 47/81/277 98/117/278 97/180/279
f 37/50/280 35/52/281 99/121/282 95/178/283
f 46/86/284 48/85/285 97/138/286 100/109/287
f 39/54/288 38/53/289 101/116/290 102/159/291
f 49/113/292 50/112/293 104/111/294 103/114/295
f 38/53/296 36/162/297 96/118/298 101/116/299
f 47/81/300 49/88/301 103/110/302 98/117/303
f 35/52/304 40/23/305 105/160/306 99/121/307
f 40/25/308 89/119/309 106/155/310 105/156/311
f 89/131/312 46/86/313 100/109/314 106/115/315
f 41/36/316 39/54/317 102/159/318 107/139/319
f 50/112/320 51/78/321 108/61/322 104/111/323
f 51/62/324 41/55/325 107/157/326 108/158/327
