# This file uses centimeters as units for non-parametric coordinates.

mtllib Mesh_Curved_Ceiling_a01.mtl
g default
v -0.000000 38.570030 0.000000
v -12.000000 24.000000 11.967041
v -10.673779 29.649059 11.967041
v -8.358974 33.716255 11.967041
v -5.461510 36.724400 11.967041
v -1.792015 38.345608 11.967041
v -10.673779 29.649059 0.000000
v -12.000000 24.000000 0.000000
v -8.358974 33.716255 0.000000
v -5.461510 36.724400 0.000000
v -1.792017 38.345608 0.000000
v 0.000000 38.570034 11.967041
v -10.673779 29.649059 -11.967041
v -12.000000 24.000000 -11.967041
v -8.358974 33.716255 -11.967041
v -5.461510 36.724400 -11.967041
v -1.792015 38.345608 -11.967041
v -0.000000 38.570034 -11.967041
v -0.604789 38.490372 0.000000
v -12.000000 23.999998 11.967041
v -10.673779 29.649057 10.193832
v -8.358974 33.716255 8.415817
v -5.322301 36.724396 6.167488
v -1.593491 38.345604 2.842918
v -10.673779 29.649057 9.334549
v -12.000000 23.999998 11.107063
v -8.358974 33.716255 7.558121
v -5.582419 36.724396 5.349152
v -1.971247 38.345604 2.069679
v -10.053040 29.496040 10.193832
v -11.000000 24.000000 11.967041
v -11.000000 24.000000 11.107063
v -10.053040 29.496040 9.334549
v -7.800272 33.408783 8.415817
v -7.800272 33.408783 7.558121
v -4.918108 36.254601 6.049728
v -5.178226 36.254601 5.231392
v -1.407923 37.749451 2.759827
v -1.785678 37.749451 1.986588
v -0.609867 37.851318 0.000000
v -0.005078 37.930977 0.000000
v -10.053040 29.496040 -10.193832
v -11.000000 24.000000 -11.967041
v -11.000000 24.000000 -11.107063
v -10.053040 29.496040 -9.334549
v -7.800272 33.408783 -8.415817
v -7.800272 33.408783 -7.558121
v -4.918108 36.254601 -6.049728
v -5.178226 36.254601 -5.231392
v -1.407923 37.749451 -2.759827
v -1.785678 37.749451 -1.986588
v -10.673779 29.649057 -10.193832
v -12.000000 23.999998 -11.967041
v -12.000000 23.999998 -11.107063
v -10.673779 29.649057 -9.334549
v -8.358974 33.716255 -8.415817
v -8.358974 33.716255 -7.558121
v -5.322301 36.724396 -6.167488
v -5.582419 36.724396 -5.349152
v -1.593491 38.345604 -2.842918
v -1.971247 38.345604 -2.069679
v -0.000000 38.570030 0.000000
vt 0.001373 0.330691
vt 0.001373 0.107545
vt 0.500000 0.107545
vt 0.500000 0.330691
vt 0.001373 0.524539
vt 0.500000 0.524539
vt 0.001373 0.696840
vt 0.500000 0.696840
vt 0.001373 0.841143
vt 0.500000 0.841143
vt 0.500000 0.892454
vt 0.001373 0.892455
vt 0.998627 0.330691
vt 0.998627 0.107545
vt 0.998627 0.524539
vt 0.998627 0.696840
vt 0.998627 0.841143
vt 0.998627 0.892455
vt 0.313762 0.951931
vt 0.051804 0.954526
vt 0.052674 0.927349
vt 0.314100 0.923514
vt 0.527702 0.951477
vt 0.527698 0.923423
vt 0.699433 0.950980
vt 0.698941 0.923216
vt 0.837182 0.949900
vt 0.837326 0.922346
vt 0.956174 0.949273
vt 0.956134 0.922516
vt 0.956135 0.922515
vt 0.956174 0.949273
vt 0.313745 0.977311
vt 0.031036 0.976304
vt 0.031149 0.904915
vt 0.313806 0.900440
vt 0.527691 0.977446
vt 0.527713 0.900433
vt 0.699817 0.977652
vt 0.698349 0.900438
vt 0.956199 0.978164
vt 0.956151 0.900285
vt 0.314100 0.923514
vt 0.313762 0.951931
vt 0.051804 0.954527
vt 0.052674 0.927349
vt 0.527698 0.923423
vt 0.527702 0.951477
vt 0.698941 0.923216
vt 0.699433 0.950980
vt 0.837326 0.922346
vt 0.837182 0.949900
vt 0.313806 0.900440
vt 0.031149 0.904915
vt 0.031036 0.976304
vt 0.313745 0.977311
vt 0.527713 0.900433
vt 0.527691 0.977446
vt 0.698349 0.900438
vt 0.699816 0.977652
vt 0.837138 0.900258
vt 0.837322 0.977853
vt 0.837322 0.977853
vt 0.837139 0.900258
vt 0.956151 0.900285
vt 0.956199 0.978164
vn 0.973531 -0.228555 0.000000
vn 0.973531 -0.228555 0.000000
vn 0.973531 -0.228555 0.000000
vn 0.973531 -0.228555 0.000000
vn 0.869099 -0.494639 0.000000
vn 0.869099 -0.494639 0.000000
vn 0.869099 -0.494639 0.000000
vn 0.869099 -0.494639 0.000000
vn 0.720233 -0.693733 -0.000000
vn 0.720233 -0.693733 -0.000000
vn 0.720233 -0.693733 -0.000000
vn 0.720233 -0.693733 -0.000000
vn 0.404123 -0.914705 -0.000000
vn 0.404123 -0.914705 -0.000000
vn 0.404123 -0.914705 -0.000000
vn 0.404123 -0.914705 -0.000000
vn 0.124265 -0.992249 0.000000
vn 0.124265 -0.992249 0.000000
vn 0.124265 -0.992249 0.000000
vn 0.124265 -0.992249 0.000000
vn 0.973531 -0.228555 0.000000
vn 0.973531 -0.228555 0.000000
vn 0.973531 -0.228555 0.000000
vn 0.973531 -0.228555 0.000000
vn 0.869099 -0.494639 0.000000
vn 0.869099 -0.494639 0.000000
vn 0.869099 -0.494639 0.000000
vn 0.869099 -0.494639 0.000000
vn 0.720233 -0.693733 0.000000
vn 0.720233 -0.693733 0.000000
vn 0.720233 -0.693733 0.000000
vn 0.720233 -0.693733 0.000000
vn 0.404123 -0.914705 0.000000
vn 0.404123 -0.914705 0.000000
vn 0.404123 -0.914705 0.000000
vn 0.404123 -0.914705 0.000000
vn 0.124265 -0.992249 -0.000000
vn 0.124265 -0.992249 -0.000000
vn 0.124265 -0.992249 -0.000000
vn 0.124265 -0.992249 -0.000000
vn 0.985479 -0.169796 0.000000
vn 0.985479 -0.169796 0.000000
vn 0.985479 -0.169796 0.000000
vn 0.985479 -0.169796 0.000000
vn 0.866625 -0.498961 0.000000
vn 0.866624 -0.498961 0.000000
vn 0.866624 -0.498961 0.000000
vn 0.866625 -0.498961 0.000000
vn 0.670675 -0.734411 -0.104088
vn 0.670675 -0.734411 -0.104088
vn 0.670675 -0.734412 -0.104088
vn 0.670675 -0.734412 -0.104088
vn 0.297431 -0.947272 -0.119206
vn 0.297431 -0.947272 -0.119206
vn 0.297431 -0.947272 -0.119206
vn 0.297431 -0.947272 -0.119206
vn 0.089343 -0.995941 -0.010924
vn 0.089343 -0.995941 -0.010924
vn 0.089343 -0.995941 -0.010924
vn 0.089343 -0.995941 -0.010924
vn 0.064775 0.312839 0.947595
vn 0.028124 0.297890 0.954186
vn 0.028124 0.297890 0.954186
vn 0.071774 0.315641 0.946160
vn 0.000002 -1.000000 0.000000
vn 0.000002 -1.000000 0.000000
vn 0.000002 -1.000000 0.000000
vn 0.000002 -1.000000 0.000000
vn -0.028114 -0.297784 -0.954219
vn -0.064730 -0.312675 -0.947652
vn -0.071722 -0.315467 -0.946222
vn -0.028114 -0.297784 -0.954219
vn 0.236673 0.333095 0.912707
vn 0.256697 0.331464 0.907876
vn -0.239608 -0.337298 -0.910394
vn -0.257009 -0.336639 -0.905881
vn 0.482434 0.267124 0.834208
vn 0.513400 0.251629 0.820429
vn -0.491121 -0.272589 -0.827343
vn -0.518132 -0.258294 -0.815367
vn 0.720989 0.163114 0.673476
vn 0.738042 0.157082 0.656216
vn -0.693377 -0.168036 -0.700708
vn -0.708110 -0.161254 -0.687442
vn -0.841713 -0.087148 -0.532845
vn -0.841713 -0.087148 -0.532845
vn 0.874847 0.095893 0.474813
vn 0.874847 0.095893 0.474813
vn 0.985479 -0.169796 0.000000
vn 0.985479 -0.169796 0.000000
vn 0.985479 -0.169796 0.000000
vn 0.985479 -0.169796 0.000000
vn 0.866624 -0.498961 0.000000
vn 0.866624 -0.498961 0.000000
vn 0.866624 -0.498961 0.000000
vn 0.866624 -0.498961 0.000000
vn 0.670675 -0.734411 0.104088
vn 0.670675 -0.734412 0.104088
vn 0.670675 -0.734411 0.104088
vn 0.670675 -0.734411 0.104088
vn 0.297431 -0.947272 0.119205
vn 0.297431 -0.947272 0.119205
vn 0.297431 -0.947272 0.119205
vn 0.297431 -0.947272 0.119205
vn 0.089343 -0.995941 0.010925
vn 0.089343 -0.995941 0.010925
vn 0.089343 -0.995941 0.010925
vn 0.089343 -0.995941 0.010925
vn 0.064775 0.312839 -0.947595
vn 0.071774 0.315641 -0.946160
vn 0.028124 0.297890 -0.954186
vn 0.028124 0.297890 -0.954186
vn 0.000002 -1.000000 0.000000
vn 0.000002 -1.000000 0.000000
vn 0.000002 -1.000000 0.000000
vn 0.000002 -1.000000 0.000000
vn -0.028114 -0.297784 0.954219
vn -0.028114 -0.297784 0.954219
vn -0.071722 -0.315467 0.946222
vn -0.064729 -0.312675 0.947652
vn 0.236673 0.333095 -0.912707
vn 0.256697 0.331464 -0.907876
vn -0.257009 -0.336639 0.905881
vn -0.239607 -0.337298 0.910395
vn 0.482434 0.267124 -0.834207
vn 0.513400 0.251630 -0.820429
vn -0.518133 -0.258294 0.815367
vn -0.491121 -0.272588 0.827343
vn 0.720989 0.163114 -0.673475
vn 0.738042 0.157082 -0.656216
vn -0.708111 -0.161254 0.687442
vn -0.693378 -0.168036 0.700708
vn -0.841713 -0.087148 0.532845
vn -0.841713 -0.087148 0.532845
vn 0.874847 0.095893 -0.474813
vn 0.874847 0.095893 -0.474813
s off
g Mesh_Curved_Ceiling_a01
usemtl lambert3SG
f 3/1/1 2/2/2 8/3/3 7/4/4
f 4/5/5 3/1/6 7/4/7 9/6/8
f 5/7/9 4/5/10 9/6/11 10/8/12
f 6/9/13 5/7/14 10/8/15 11/10/16
f 11/10/17 1/11/18 12/12/19 6/9/20
f 13/13/21 7/4/22 8/3/23 14/14/24
f 15/15/25 9/6/26 7/4/27 13/13/28
f 16/16/29 10/8/30 9/6/31 15/15/32
f 17/17/33 11/10/34 10/8/35 16/16/36
f 11/10/37 17/17/38 18/18/39 1/11/40
usemtl lambert4SG
f 30/19/41 31/20/42 32/21/43 33/22/44
f 34/23/45 30/19/46 33/22/47 35/24/48
f 36/25/49 34/23/50 35/24/51 37/26/52
f 38/27/53 36/25/54 37/26/55 39/28/56
f 39/28/57 40/31/58 41/32/59 38/27/60
s 1
f 21/33/61 20/34/62 31/20/63 30/19/64
s off
f 20/34/65 26/35/66 32/21/67 31/20/68
s 2
f 26/35/69 25/36/70 33/22/71 32/21/72
s 1
f 22/37/73 21/33/61 30/19/64 34/23/74
s 2
f 25/36/70 27/38/75 35/24/76 33/22/71
s 1
f 23/39/77 22/37/73 34/23/74 36/25/78
s 2
f 27/38/75 28/40/79 37/26/80 35/24/76
s 1
f 24/63/81 23/39/77 36/25/78 38/27/82
s 2
f 28/40/79 29/64/83 39/28/84 37/26/80
f 29/64/83 19/65/85 40/31/86 39/28/84
s 1
f 62/66/87 24/63/81 38/27/82 41/32/88
s off
f 42/43/89 45/44/90 44/45/91 43/46/92
f 46/47/93 47/48/94 45/44/95 42/43/96
f 48/49/97 49/50/98 47/48/99 46/47/100
f 50/51/101 51/52/102 49/50/103 48/49/104
f 51/52/105 50/51/106 41/30/107 40/29/108
s 3
f 52/53/109 42/43/110 43/46/111 53/54/112
s off
f 53/54/113 43/46/114 44/45/115 54/55/116
s 4
f 54/55/117 44/45/118 45/44/119 55/56/120
s 3
f 56/57/121 46/47/122 42/43/110 52/53/109
s 4
f 55/56/120 45/44/119 47/48/123 57/58/124
s 3
f 58/59/125 48/49/126 46/47/122 56/57/121
s 4
f 57/58/124 47/48/123 49/50/127 59/60/128
s 3
f 60/61/129 50/51/130 48/49/126 58/59/125
s 4
f 59/60/128 49/50/127 51/52/131 61/62/132
f 61/62/132 51/52/131 40/29/133 19/41/134
s 3
f 62/42/135 41/30/136 50/51/130 60/61/129
