# This file uses centimeters as units for non-parametric coordinates.

mtllib Mesh_Wall_b01.mtl
g default
v -11.292892 1.000000 11.998695
v -11.292892 0.000000 11.998688
v -12.000023 1.000000 -12.001244
v -12.000000 1.000000 12.001286
v -12.000023 23.000000 -12.001244
v -12.000000 23.000000 12.001286
v -11.292870 23.000000 -11.998756
v -11.292892 23.000000 11.998695
v -11.292870 24.000000 -11.998756
v -11.292892 24.000000 11.998695
v -12.000023 24.000000 -12.001244
v -12.000000 24.000000 12.001286
v -11.292870 0.000000 -11.998756
v -11.292870 1.000000 -11.998756
vt 0.999478 0.014432
vt 0.999494 0.056101
vt 0.000510 0.056102
vt 0.000527 0.014433
vt 0.999568 0.085568
vt 0.000431 0.085566
vt 0.001119 0.899717
vt 0.998881 0.899715
vt 0.000000 -0.000000
vt 1.000000 -0.000000
vt 1.000000 1.000000
vt 0.000000 1.000000
vt 0.998862 0.929176
vt 0.001143 0.929176
vt 0.998862 0.970823
vt 0.001143 0.970823
vt 0.998881 1.000285
vt 0.001119 1.000283
vn 1.000000 0.000000 0.000001
vn 1.000000 0.000000 0.000001
vn 1.000000 0.000000 0.000001
vn 1.000000 0.000000 0.000001
vn 0.000000 1.000000 0.000000
vn 0.000000 1.000000 0.000000
vn 0.000000 1.000000 0.000000
vn 0.000000 1.000000 0.000000
vn 1.000000 0.000000 -0.000001
vn 1.000000 0.000000 -0.000001
vn 1.000000 0.000000 -0.000001
vn 1.000000 0.000000 -0.000001
vn 0.000000 -1.000000 0.000000
vn 0.000000 -1.000000 0.000000
vn 0.000000 -1.000000 0.000000
vn 0.000000 -1.000000 0.000000
vn 1.000000 0.000000 0.000001
vn 1.000000 0.000000 0.000001
vn 1.000000 0.000000 0.000001
vn 1.000000 0.000000 0.000001
vn 0.000000 1.000000 0.000000
vn 0.000000 1.000000 0.000000
vn 0.000000 1.000000 0.000000
vn 0.000000 1.000000 0.000000
s off
g Mesh_Wall_b01
usemtl lambert4SG
f 13/1/1 14/2/2 1/3/3 2/4/4
f 1/3/5 14/2/6 3/5/7 4/6/8
usemtl lambert5SG
f 4/9/9 3/10/10 5/11/11 6/12/12
usemtl lambert4SG
f 6/7/13 5/8/14 7/13/15 8/14/16
f 8/14/17 7/13/18 9/15/19 10/16/20
f 10/16/21 9/15/22 11/17/23 12/18/24
