# This file uses centimeters as units for non-parametric coordinates.

mtllib Mesh_Wall_c01.mtl
g default
v -12.000000 1.000000 12.000000
v -12.000000 23.000000 12.000000
v -12.000000 1.000000 -12.000000
v -12.000000 23.000000 -12.000000
v -11.000000 23.000000 12.000000
v -11.000000 23.000000 -12.000000
v -11.000000 24.000000 12.000000
v -11.000000 24.000000 -12.000000
v -12.000000 24.000000 12.000000
v -12.000000 24.000000 -12.000000
v -12.000000 23.000000 0.000000
v -11.000000 23.000000 0.000000
v -11.000000 24.000000 0.000000
v -12.000000 24.000000 0.000000
v -12.000000 22.000000 0.000000
v -12.000000 18.000000 7.000000
v -12.000000 18.000000 -7.000000
v -12.000000 13.000000 10.000000
v -12.000000 13.000000 -10.000000
v -12.000000 13.000000 -12.000000
v -12.000000 13.000000 12.000000
v -11.000000 1.000000 12.000000
v -11.000000 1.000000 -12.000000
v -11.000000 0.000000 12.000000
v -11.000000 0.000000 -12.000000
v -12.000000 0.000000 12.000000
v -12.000000 0.000000 -12.000000
v -12.000000 0.000000 0.000000
v -11.000000 -0.000000 0.000000
v -11.000000 13.000000 10.000000
v -11.000000 22.000000 0.000000
v -11.000000 18.000000 7.000000
v -11.000000 18.000000 -7.000000
v -11.000000 13.000000 -10.000000
v -11.000000 12.916174 9.441162
v -11.000000 21.413219 0.000000
v -11.000000 17.636755 6.608814
v -11.000000 17.636755 -6.608814
v -11.000000 12.916174 -9.441162
v -11.000000 1.000000 11.329391
v -11.000000 1.000000 -11.328484
v -11.000000 0.000000 11.329391
v -12.000000 0.000000 11.329391
v -12.000000 0.000000 -11.331211
v -11.000000 0.000000 -11.327576
v -11.000000 12.916174 3.000000
v -11.000000 18.628876 0.000320
v -11.000000 15.882626 3.000000
v -11.000000 15.882626 -3.000000
v -11.000000 12.916174 -3.000000
v -11.000000 1.000000 -3.000000
v -11.000000 -0.000000 -3.000000
v -11.000000 -0.000000 2.645737
v -11.000000 -0.000000 -2.645737
v -11.000000 1.000000 0.000000
v -11.000000 12.916174 2.645737
v -11.000000 18.078442 0.000282
v -11.000000 15.656488 2.645737
v -11.000000 15.656488 -2.645737
v -11.000000 12.916174 -2.645737
v -11.000000 1.000000 2.645737
v -11.000000 1.000000 -2.645737
v -12.000000 12.916174 2.645737
v -12.000000 18.078442 0.000282
v -12.000000 15.656488 2.645737
v -12.000000 15.656488 -2.645737
v -12.000000 12.916174 -2.645737
v -12.000000 1.000000 2.645737
v -12.000000 1.000000 0.000000
v -12.000000 1.000000 -2.645737
v -12.000000 12.916174 2.424259
v -12.000000 17.700474 0.000259
v -12.000000 15.481265 2.424259
v -12.000000 15.481265 -2.424259
v -12.000000 12.916174 -2.424259
v -12.000000 1.210045 2.424259
v -12.000000 1.210045 0.000000
v -12.000000 1.210045 -2.424259
v -12.145507 12.916174 2.424259
v -12.145507 12.916174 0.000259
v -12.145508 17.700474 0.000259
v -12.145507 15.481265 2.424259
v -12.145507 15.481265 -2.424259
v -12.145507 12.916174 -2.424259
v -12.145507 1.210045 2.424259
v -12.145507 1.210045 0.000000
v -12.145507 1.210045 -2.424259
v -11.000000 -0.000000 0.000000
v -11.000000 1.000000 3.000000
v -11.000000 -0.000000 3.000000
v -12.000000 0.000000 3.000000
v -12.000000 0.000000 2.645737
v -12.000001 0.000000 -2.645737
v -12.000000 0.000000 -3.000000
vt -0.000008 0.872423
vt 0.000000 1.000000
vt 0.208333 0.782609
vt 0.500000 0.872424
vt 0.500000 0.914697
vt -0.000002 0.915303
vt 0.500000 0.957374
vt 0.000004 0.958394
vt 0.500000 0.999991
vt 0.000008 0.999993
vt 0.999999 0.872423
vt 0.500000 0.956522
vt 0.500000 1.000000
vt 1.000000 1.000000
vt 1.000000 0.915303
vt 1.000001 0.958394
vt 1.000001 0.999993
vt 0.791667 0.782609
vt 0.916667 0.565217
vt 1.000000 0.565217
vt 0.000000 0.043478
vt 0.029465 0.399927
vt 0.142661 0.806567
vt 0.142634 0.833796
vt 0.029446 0.441217
vt 0.496835 0.040281
vt 0.396720 0.040308
vt 0.001756 0.441203
vt 0.001776 0.399913
vt 0.496783 -0.000111
vt 0.970631 0.358767
vt 0.970469 0.400060
vt 0.626550 0.399942
vt 0.605766 0.040303
vt 0.142634 0.833796
vt 0.142661 0.806567
vt 0.626559 0.358649
vt 1.000608 0.869511
vt 0.765445 0.869556
vt 0.764442 0.833837
vt 1.000770 0.833853
vt 0.584680 0.869597
vt 0.584529 0.833781
vt 0.584680 0.869597
vt 0.765445 0.869556
vt 0.764442 0.833836
vt 0.584529 0.833781
vt 0.142662 0.869630
vt 0.142662 0.869630
vt 0.776813 0.806539
vt 1.000611 0.806530
vt 0.595867 0.806568
vt 0.776813 0.806539
vt 0.595867 0.806568
vt 0.998224 0.441357
vt 0.970496 0.441353
vt 0.083333 0.565217
vt 0.000000 0.565217
vt 1.000000 0.043478
vt 0.998232 0.400066
vt 0.972020 0.043478
vt 0.625000 0.043478
vt 0.029484 0.358636
vt 0.501332 0.991936
vt 0.361089 0.699256
vt 0.348023 0.852747
vt 0.360900 0.842565
vt 0.501338 0.970143
vt 0.347685 0.695210
vt 0.360301 0.695200
vt 0.654956 0.695215
vt 0.654627 0.852715
vt 0.515402 0.116754
vt 0.340482 0.116802
vt 0.340464 0.050687
vt 0.515384 0.050640
vt 0.001795 0.358623
vt 0.105457 0.794456
vt 0.690305 0.050593
vt 0.690323 0.116707
vt 0.754882 0.584446
vt 0.516456 0.584056
vt 0.546171 0.541148
vt 0.754854 0.541163
vt 0.993157 0.692171
vt 0.815764 0.692171
vt 0.105457 0.773271
vt 0.993244 0.585102
vt 0.963562 0.541148
vt 0.998244 0.358775
vt 0.815764 0.670986
vt 0.979634 0.670986
vt 0.545848 0.491686
vt 0.754830 0.491309
vt 0.641752 0.842530
vt 0.962782 0.491721
vt 0.642342 0.695202
vt 0.348135 0.015647
vt 0.501338 0.013085
vt 0.501358 0.025235
vt 0.361003 0.027678
vt 0.654488 0.015618
vt 0.641620 0.027656
vt 0.368435 0.838816
vt 0.501254 0.962079
vt 0.368698 0.695196
vt 0.634209 0.838887
vt 0.633967 0.695187
vt 0.500000 0.931010
vt 0.224633 0.766815
vt 0.375000 0.690549
vt 0.499987 0.809951
vt 0.106618 0.561573
vt 0.375000 0.561573
vt 0.893382 0.561573
vt 0.775367 0.766815
vt 0.625000 0.690549
vt 0.625000 0.561573
vt 0.027942 0.043478
vt 0.375000 0.043478
vt 0.626542 0.441235
vt 0.373395 0.400080
vt 0.494340 0.699256
vt 0.494340 0.974601
vt 0.361089 0.846882
vt 0.627620 0.699256
vt 0.627620 0.846882
vt 0.361089 0.025546
vt 0.494354 0.025546
vt 0.627620 0.025546
vt 0.103180 0.692171
vt 0.103180 0.670986
vt 0.373376 0.441370
vt 0.611915 0.441232
vt 0.815764 0.601365
vt 0.979634 0.601365
vt 0.103180 0.601365
vt 0.818041 0.794456
vt 0.995434 0.794456
vt 0.981911 0.773271
vt 0.818041 0.773271
vt 0.981911 0.703650
vt 0.818041 0.703650
vt 0.105457 0.703650
vt 0.515420 0.182868
vt 0.340500 0.182916
vt 0.690341 0.182821
vt 0.501286 0.033649
vt 0.368356 0.030425
vt 0.634333 0.030495
vt 0.496835 0.040281
vt 0.611924 0.399939
vt 0.388004 0.441377
vt 0.388022 0.400087
vt 0.373413 0.358790
vt 0.496783 -0.000111
vt 0.388041 0.358797
vt 0.396887 -0.000098
vt 0.605718 -0.000099
vt 0.611931 0.358646
vt 1.000770 0.833853
vt 1.000611 0.806530
vt 1.000608 0.869511
vn 1.000000 0.000000 0.000000
vn 1.000000 0.000000 0.000000
vn 1.000000 0.000000 0.000000
vn 1.000000 0.000000 0.000000
vn 0.000000 -1.000000 0.000000
vn 0.000000 -1.000000 0.000000
vn 0.000000 -1.000000 0.000000
vn 0.000000 -1.000000 0.000000
vn 1.000000 0.000000 0.000000
vn 1.000000 0.000000 0.000000
vn 1.000000 0.000000 0.000000
vn 1.000000 0.000000 0.000000
vn 0.000000 1.000000 0.000000
vn 0.000000 1.000000 0.000000
vn 0.000000 1.000000 0.000000
vn 0.000000 1.000000 0.000000
vn 1.000000 0.000000 0.000000
vn 1.000000 0.000000 0.000000
vn 1.000000 0.000000 0.000000
vn 1.000000 0.000000 0.000000
vn 0.000000 -1.000000 0.000000
vn 0.000000 -1.000000 0.000000
vn 1.000000 0.000000 0.000000
vn 1.000000 0.000000 0.000000
vn 0.000000 1.000000 0.000000
vn 0.000000 1.000000 0.000000
vn 1.000000 0.000000 0.000000
vn 1.000000 0.000000 0.000000
vn 1.000000 0.000000 0.000000
vn 1.000000 0.000000 0.000000
vn 1.000000 0.000000 0.000000
vn 1.000000 0.000000 0.000000
vn 1.000000 0.000000 0.000000
vn 1.000000 0.000000 0.000000
vn -0.000000 -1.000000 -0.000000
vn -0.000000 -1.000000 -0.000000
vn -0.000000 -1.000000 -0.000000
vn -0.000000 -1.000000 -0.000000
vn -0.000000 -1.000000 -0.000000
vn -0.000000 -1.000000 -0.000000
vn -0.000000 -1.000000 -0.000000
vn -0.000000 -1.000000 -0.000000
vn 1.000000 0.000000 0.000000
vn 1.000000 0.000000 0.000000
vn 1.000000 0.000000 0.000000
vn 1.000000 0.000000 0.000000
vn 0.000000 0.868243 0.496139
vn 0.000000 0.868243 0.496139
vn 0.000000 0.868243 0.496139
vn 0.000000 0.868243 0.496139
vn 0.000000 0.514496 0.857493
vn 0.000000 0.514496 0.857493
vn 0.000000 0.514496 0.857493
vn 0.000000 0.514496 0.857493
vn 0.000000 0.514496 -0.857493
vn 0.000000 0.514496 -0.857493
vn 0.000000 0.514496 -0.857493
vn 0.000000 0.514496 -0.857493
vn 0.000000 0.868243 -0.496139
vn 0.000000 0.868243 -0.496139
vn 0.000000 0.868243 -0.496139
vn 0.000000 0.868243 -0.496139
vn 0.000000 0.164399 0.986394
vn 0.000000 0.164399 0.986394
vn 0.000000 0.164399 0.986394
vn 0.000000 0.164399 0.986394
vn 0.000000 0.164399 -0.986394
vn 0.000000 0.164399 -0.986394
vn 0.000000 0.164399 -0.986394
vn 0.000000 0.164399 -0.986394
vn 1.000000 0.000000 0.000000
vn 1.000000 0.000000 0.000000
vn 1.000000 0.000000 0.000000
vn 1.000000 0.000000 0.000000
vn 1.000000 0.000000 0.000000
vn 1.000000 0.000000 0.000000
vn 1.000000 0.000000 0.000000
vn 1.000000 0.000000 0.000000
vn 1.000000 0.000000 0.000000
vn 1.000000 0.000000 0.000000
vn 1.000000 0.000000 0.000000
vn 1.000000 0.000000 0.000000
vn 1.000000 -0.000001 0.000000
vn 1.000000 -0.000001 0.000000
vn 1.000000 -0.000001 0.000000
vn 1.000000 -0.000001 0.000000
vn 1.000000 0.000000 0.000000
vn 1.000000 0.000000 0.000000
vn 1.000000 0.000000 0.000000
vn 1.000000 0.000000 0.000000
vn 1.000000 0.000000 0.000000
vn 1.000000 0.000000 0.000000
vn 1.000000 0.000000 0.000000
vn 1.000000 0.000000 0.000000
vn -0.000000 -1.000000 0.000000
vn -0.000000 -1.000000 0.000000
vn -0.000000 -1.000000 0.000000
vn -0.000000 -1.000000 0.000000
vn -0.000000 -1.000000 -0.000000
vn -0.000000 -1.000000 -0.000000
vn 1.000000 0.000000 0.000000
vn 1.000000 0.000000 0.000000
vn 1.000000 0.000000 0.000000
vn 1.000000 0.000000 0.000000
vn 1.000000 0.000000 0.000000
vn 1.000000 0.000000 0.000000
vn 1.000000 0.000000 0.000000
vn 1.000000 0.000000 0.000000
vn 1.000000 0.000000 0.000000
vn 1.000000 0.000000 0.000000
vn 1.000000 0.000000 0.000000
vn 1.000000 0.000000 0.000000
vn 1.000000 0.000000 0.000000
vn 1.000000 0.000000 0.000000
vn 1.000000 0.000000 0.000000
vn 1.000000 0.000000 0.000000
vn 1.000000 0.000000 0.000000
vn 1.000000 0.000000 0.000000
vn 1.000000 0.000000 0.000000
vn 1.000000 0.000000 0.000000
vn 1.000000 0.000000 0.000000
vn 1.000000 0.000000 0.000000
vn 1.000000 0.000000 0.000000
vn 1.000000 0.000000 0.000000
vn 1.000000 0.000000 0.000000
vn 1.000000 0.000000 0.000000
vn 1.000000 0.000000 0.000000
vn 1.000000 0.000000 0.000000
vn 1.000000 0.000000 -0.000000
vn 1.000000 0.000000 -0.000000
vn 1.000000 0.000000 0.000000
vn 1.000000 0.000000 -0.000000
vn 1.000000 0.000000 0.000000
vn 1.000000 0.000000 0.000000
vn 1.000000 0.000000 0.000000
vn 1.000000 -0.000000 0.000000
vn 1.000000 -0.000000 0.000000
vn 1.000000 0.000000 0.000000
vn 1.000000 0.000000 0.000000
vn 1.000000 0.000000 0.000000
vn 1.000000 0.000000 0.000000
vn 1.000000 0.000000 0.000000
vn 1.000000 0.000000 0.000000
vn 1.000000 0.000000 0.000000
vn 1.000000 0.000000 0.000000
vn 1.000000 0.000000 0.000000
vn 1.000000 0.000000 0.000000
vn 1.000000 0.000000 0.000000
vn 1.000000 0.000000 0.000000
vn 1.000000 0.000000 0.000000
vn 1.000000 0.000000 0.000000
vn 1.000000 0.000000 0.000000
vn 1.000000 0.000000 0.000000
vn 1.000000 0.000000 0.000000
vn 1.000000 0.000000 0.000000
vn 1.000000 0.000000 0.000000
vn 1.000000 0.000000 0.000000
vn 1.000000 0.000000 0.000000
vn 1.000000 0.000000 0.000000
vn 1.000000 0.000000 0.000000
vn 1.000000 0.000000 0.000000
vn 1.000000 0.000000 0.000000
vn 1.000000 0.000000 0.000000
vn 1.000000 0.000000 0.000000
vn 1.000000 0.000000 0.000000
vn 1.000000 0.000000 0.000000
vn 1.000000 0.000000 0.000000
vn 1.000000 0.000000 0.000000
vn 1.000000 0.000000 0.000000
vn 1.000000 0.000000 0.000000
vn 1.000000 0.000000 0.000000
vn 0.000000 -0.737577 -0.675263
vn 0.000000 -0.737577 -0.675263
vn 0.000000 -0.737577 -0.675263
vn 0.000000 -0.737577 -0.675263
vn 0.000000 0.000000 -1.000000
vn 0.000000 0.000000 -1.000000
vn 0.000000 0.000000 -1.000000
vn 0.000000 0.000000 -1.000000
vn 0.000000 0.000000 1.000000
vn 0.000000 0.000000 1.000000
vn 0.000000 0.000000 1.000000
vn 0.000000 0.000000 1.000000
vn 0.000000 -0.737649 0.675185
vn 0.000000 -0.737649 0.675185
vn 0.000000 -0.737649 0.675185
vn 0.000000 -0.737649 0.675185
vn 0.000000 1.000000 0.000000
vn 0.000000 1.000000 0.000000
vn 0.000000 1.000000 0.000000
vn 0.000000 1.000000 0.000000
vn 0.000000 0.000000 -1.000000
vn 0.000000 0.000000 -1.000000
vn 0.000000 0.000000 -1.000000
vn 0.000000 0.000000 -1.000000
vn 0.000000 0.000000 1.000000
vn 0.000000 0.000000 1.000000
vn 0.000000 0.000000 1.000000
vn 0.000000 0.000000 1.000000
vn 0.000000 1.000000 0.000000
vn 0.000000 1.000000 0.000000
vn 0.000000 1.000000 0.000000
vn 0.000000 1.000000 0.000000
vn 1.000000 0.000000 0.000000
vn 1.000000 0.000000 0.000000
vn 1.000000 0.000000 0.000000
vn 1.000000 0.000000 0.000000
vn 1.000000 0.000000 0.000000
vn 1.000000 0.000000 0.000000
vn 1.000000 0.000000 0.000000
vn 1.000000 0.000000 0.000000
vn 1.000000 0.000000 0.000000
vn 1.000000 0.000000 0.000000
vn 1.000000 0.000000 0.000000
vn 1.000000 0.000000 0.000000
vn 1.000000 0.000000 0.000000
vn 1.000000 0.000000 0.000000
vn 1.000000 0.000000 0.000000
vn 1.000000 0.000000 0.000000
vn 1.000000 0.000000 0.000000
vn 1.000000 0.000000 0.000000
vn 1.000000 0.000000 0.000000
vn 1.000000 0.000000 0.000000
vn 1.000000 0.000000 0.000000
vn 1.000000 0.000000 0.000000
vn 1.000000 0.000000 0.000000
vn 1.000000 0.000000 0.000000
vn 1.000000 0.000000 0.000000
vn 1.000000 0.000000 0.000000
vn 1.000000 0.000000 0.000000
vn 1.000000 0.000000 0.000000
vn 1.000000 0.000000 0.000000
vn 1.000000 0.000000 0.000000
vn 1.000000 0.000000 0.000000
vn 1.000000 0.000000 0.000000
vn 0.000000 -0.737578 -0.675262
vn 0.000000 -0.737578 -0.675262
vn 0.000000 -0.737578 -0.675262
vn 0.000000 -0.737578 -0.675262
vn 0.000000 0.000000 -1.000000
vn 0.000000 0.000000 -1.000000
vn 0.000000 0.000000 -1.000000
vn 0.000000 0.000000 -1.000000
vn 0.000000 0.000000 1.000000
vn 0.000000 0.000000 1.000000
vn 0.000000 0.000000 1.000000
vn 0.000000 0.000000 1.000000
vn 0.000000 -0.737651 0.675183
vn 0.000000 -0.737651 0.675183
vn 0.000000 -0.737651 0.675183
vn 0.000000 -0.737651 0.675183
vn 0.000000 1.000000 0.000000
vn 0.000000 1.000000 0.000000
vn 0.000000 1.000000 0.000000
vn 0.000000 1.000000 0.000000
vn 0.000000 0.000000 -1.000000
vn 0.000000 0.000000 -1.000000
vn 0.000000 0.000000 -1.000000
vn 0.000000 0.000000 -1.000000
vn 0.000000 0.000000 1.000000
vn 0.000000 0.000000 1.000000
vn 0.000000 0.000000 1.000000
vn 0.000000 0.000000 1.000000
vn 0.000000 1.000000 0.000000
vn 0.000000 1.000000 0.000000
vn 0.000000 1.000000 0.000000
vn 0.000000 1.000000 0.000000
vn -0.000000 -1.000000 0.000000
vn -0.000000 -1.000000 0.000000
vn -0.000000 -1.000000 -0.000000
vn -0.000000 -1.000000 -0.000000
s 1
g Mesh_Wall_c01
usemtl lambert5SG
f 2/2/1 16/3/2 15/12/3 11/13/4
s 2
usemtl lambert4SG
f 2/1/5 11/4/6 12/5/7 5/6/8
s 3
f 5/6/9 12/5/10 13/7/11 7/8/12
s 4
f 7/8/13 13/7/14 14/9/15 9/10/16
s 1
usemtl lambert5SG
f 4/14/17 17/18/18 19/19/19 20/20/20
s 2
usemtl lambert4SG
f 12/5/7 11/4/6 4/11/21 6/15/22
s 3
f 13/7/11 12/5/10 6/15/23 8/16/24
s 4
f 14/9/15 13/7/14 8/16/25 10/17/26
s 1
usemtl lambert5SG
f 1/21/27 18/57/28 21/58/29
f 11/13/4 15/12/3 17/18/18 4/14/17
f 20/20/20 19/19/19 3/59/30
f 21/58/29 18/57/28 16/3/2 2/2/1
s 5
usemtl lambert4SG
f 42/22/31 40/25/32 22/28/33 24/29/34
s 6
f 29/151/35 53/27/36 92/158/37 28/30/38
f 44/31/39 45/32/40 52/33/41 94/37/42
s 8
f 23/55/43 41/56/44 45/32/45 25/60/46
s off
f 15/38/47 16/39/48 32/40/49 31/41/50
f 16/39/51 18/42/52 30/43/53 32/40/54
f 19/44/55 17/45/56 33/46/57 34/47/58
f 17/45/59 15/163/60 31/161/61 33/46/62
f 18/42/63 1/48/64 22/24/65 30/43/66
f 3/49/67 19/44/68 34/47/69 23/35/70
f 31/41/71 32/40/72 37/50/73 36/51/74
f 32/40/75 30/43/76 35/52/77 37/50/78
f 34/47/79 33/46/80 38/53/81 39/54/82
f 33/46/83 31/161/84 36/162/85 38/53/86
f 30/43/87 22/24/88 40/23/89 35/52/90
f 23/35/91 34/47/92 39/54/93 41/36/94
s 6
f 43/63/95 42/22/96 24/29/97 26/77/98
f 25/60/99 45/32/40 44/31/39 27/90/100
s 8
f 45/32/45 41/56/44 51/121/101 52/33/102
s off
usemtl lambert3SG
f 36/109/103 37/110/104 48/111/105 47/112/106
f 37/110/107 35/113/108 46/114/109 48/111/110
f 39/115/111 38/116/112 49/117/113 50/118/114
f 38/116/115 36/109/116 47/112/117 49/117/118
f 35/113/119 40/119/120 89/120/121 46/114/122
f 41/61/123 39/115/124 50/118/125 51/62/126
s 5
usemtl lambert4SG
f 90/122/127 89/133/128 40/25/32 42/22/31
s 10
usemtl blinn1SG
f 79/65/129 80/123/130 81/124/131 82/125/132
f 84/126/133 83/127/134 81/124/131 80/123/130
f 85/128/135 86/129/136 80/123/130 79/65/129
f 87/130/137 84/126/133 80/123/130 86/129/136
s 11
usemtl lambert4SG
f 55/73/138 61/74/139 53/75/140 88/76/141
f 52/33/142 51/121/143 62/134/144 54/152/145
s off
f 47/81/146 48/82/147 58/83/148 57/84/149
f 48/85/150 46/86/151 56/91/152 58/92/153
f 50/138/154 49/139/155 59/140/156 60/141/157
f 49/88/158 47/81/159 57/84/160 59/89/161
f 46/86/162 89/131/163 61/132/164 56/91/165
f 51/78/166 50/138/167 60/141/168 62/87/169
s 11
f 61/153/139 89/133/170 90/122/171 53/154/140
f 54/79/145 62/80/144 55/73/138 88/76/141
s off
f 57/84/172 58/83/173 65/93/174 64/94/175
f 58/92/176 56/91/177 63/135/178 65/136/179
f 60/141/180 59/140/181 66/142/182 67/143/183
f 59/89/184 57/84/185 64/94/186 66/96/187
f 61/74/188 55/73/189 69/145/190 68/146/191
f 56/91/192 61/132/193 68/137/194 63/135/195
f 62/87/196 60/141/197 67/143/198 70/144/199
f 55/73/200 62/80/201 70/147/202 69/145/203
usemtl lambert3SG
f 64/64/204 65/66/205 73/67/206 72/68/207
f 65/66/208 63/69/209 71/70/210 73/67/211
f 67/71/212 66/72/213 74/95/214 75/97/215
f 66/72/216 64/64/217 72/68/218 74/95/219
f 68/98/220 69/99/221 77/100/222 76/101/223
f 63/69/224 68/98/225 76/101/226 71/70/227
f 70/102/228 67/71/229 75/97/230 78/103/231
f 69/99/232 70/102/233 78/103/234 77/100/235
f 72/68/236 73/67/237 82/104/238 81/105/239
f 73/67/240 71/70/241 79/106/242 82/104/243
f 75/97/244 74/95/245 83/107/246 84/108/247
f 74/95/248 72/68/249 81/105/250 83/107/251
f 76/101/252 77/100/253 86/148/254 85/149/255
f 71/70/256 76/101/257 85/149/258 79/106/259
f 78/103/260 75/97/261 84/108/262 87/150/263
f 77/100/264 78/103/265 87/150/266 86/148/267
s 6
usemtl lambert4SG
f 91/155/268 90/122/269 42/22/96 43/63/95
f 92/157/37 53/154/36 90/122/269 91/155/268
f 93/159/270 54/34/271 29/26/35 28/156/38
f 94/37/42 52/33/41 54/152/271 93/160/270
