# This file uses centimeters as units for non-parametric coordinates.

mtllib Diner_Hall_Mesh.mtl
g default
v -35.106998 0.000000 15.988966
v -10.149200 0.000000 15.988966
v -35.106998 5.175953 15.988966
v -10.149200 5.175953 15.988966
v -35.106998 5.175953 -3.638223
v -10.149200 5.175953 -3.638223
v -35.106998 0.000000 -3.638223
v -10.149200 0.000000 -3.638223
v -10.149200 0.000000 3.999999
v -10.149200 5.175953 3.999999
v -35.106998 5.175953 3.999999
v -35.106998 0.000000 3.999999
v -10.149200 0.000000 8.901073
v -10.149200 5.175953 8.901073
v -35.106998 5.175953 8.901073
v -35.106998 0.000000 8.901073
v -34.935204 5.316730 -3.481179
v -34.935204 4.715839 -3.481179
v -35.087303 4.596820 -3.632744
v -35.401024 4.596820 -3.945734
v -10.320995 5.316730 -3.481179
v -10.320995 4.715839 -3.481179
v -10.168896 4.596820 -3.632744
v -9.855175 4.596820 -3.945734
v -34.935204 5.316730 15.831921
v -34.935204 4.715839 15.831921
v -35.087303 4.596820 15.983486
v -35.401024 4.596820 16.296476
v -10.320995 5.316730 15.831921
v -10.320995 4.715839 15.831921
v -10.168896 4.596820 15.983486
v -9.855175 4.596820 16.296476
v -34.822395 -0.098765 -3.369495
v -34.822395 0.551480 -3.369495
v -35.288216 0.670452 -3.835316
v -34.974373 0.670452 -3.521473
v -34.822395 -0.098765 15.720237
v -34.822395 0.551480 15.720237
v -35.288216 0.670452 16.186058
v -34.974373 0.670452 15.872214
v -10.433804 -0.098765 15.720237
v -10.433804 0.551480 15.720237
v -9.967983 0.670452 16.186058
v -10.281826 0.670452 15.872214
v -9.968243 0.672930 9.230829
v -10.281826 0.672955 8.901077
v -10.433804 0.554007 8.901078
v -10.433804 -0.098761 8.901078
v -10.433804 -0.098765 -3.369495
v -10.433804 0.551480 -3.369495
v -9.967983 0.670452 -3.835316
v -10.281826 0.670452 -3.521473
v -9.968243 0.672930 4.098926
v -10.281826 0.672955 4.098925
v -10.433804 0.554007 4.098924
v -10.433804 -0.098761 4.098924
vt -0.181400 0.004857
vt -0.181393 0.995257
vt -3.023014 -2.052234
vt -1.044903 -2.052234
vt -3.023014 -0.074124
vt -1.044903 -0.074124
vt 1.938308 0.555962
vt 1.938308 0.432004
vt 2.256829 0.432004
vt 2.256829 0.555962
vt -1.336262 0.995849
vt -1.336272 0.004196
vt -7.547678 0.003702
vt -7.547671 0.996298
vt -8.736668 0.996153
vt 1.938308 0.352467
vt -8.736668 0.003865
vt -1.044903 -0.902398
vt -3.023014 -0.902398
vt -9.499587 0.996153
vt 2.256830 0.352467
vt -9.499587 0.003865
vt -16.814323 0.004204
vt 1.938308 0.237440
vt -16.814318 0.995856
vt -1.044903 -1.484383
vt -3.023014 -1.484383
vt -17.885981 0.995265
vt 2.256830 0.237440
vt -17.885983 0.004866
vt 0.033391 0.745096
vt 0.551659 0.745096
vt 0.551727 0.760276
vt 0.033322 0.760276
vt 0.020872 0.732145
vt 0.564177 0.732145
vt 0.555740 0.740242
vt 0.029310 0.740242
vt 0.033391 0.745096
vt 0.551659 0.745096
vt 0.551727 0.760276
vt 0.033322 0.760276
vt 0.020872 0.732145
vt 0.564177 0.732145
vt 0.555740 0.740242
vt 0.029310 0.740242
vt 0.033391 0.745096
vt 0.551659 0.745096
vt 0.551727 0.760276
vt 0.033322 0.760276
vt 0.020872 0.732145
vt 0.564177 0.732145
vt 0.555740 0.740242
vt 0.029310 0.740242
vt 0.033391 0.745096
vt 0.551659 0.745096
vt 0.551727 0.760276
vt 0.033322 0.760276
vt 0.020872 0.732145
vt 0.564177 0.732145
vt 0.555740 0.740242
vt 0.029310 0.740242
vt 0.556674 0.738847
vt 0.565132 0.731549
vt 0.019860 0.731549
vt 0.028303 0.738847
vt 0.552603 0.743630
vt 0.032857 0.743630
vt 0.033433 0.759323
vt 0.552581 0.759323
vt 0.551741 0.745115
vt 0.555643 0.740261
vt 0.029323 0.740261
vt 0.033404 0.745115
vt 0.564097 0.732164
vt 0.020885 0.732164
vt 0.033335 0.760295
vt 0.551672 0.760295
vt 0.700675 0.786907
vt 0.775054 0.786903
vt 0.782520 0.780462
vt 0.708137 0.780419
vt 0.697079 0.791141
vt 0.771461 0.791125
vt 0.771442 0.804976
vt 0.697063 0.805148
vt 0.553174 0.786245
vt 0.035931 0.786243
vt 0.032659 0.781953
vt 0.556447 0.781953
vt 0.025950 0.775110
vt 0.563155 0.775107
vt 0.553185 0.800253
vt 0.035920 0.800251
vt 0.700675 0.786907
vt 0.708137 0.780419
vt 0.782520 0.780462
vt 0.775054 0.786903
vt 0.697079 0.791141
vt 0.771461 0.791125
vt 0.771442 0.804976
vt 0.697063 0.805148
vt -10.602909 0.996298
vt -10.602913 0.003702
vn 0.000000 0.000000 -1.000000
vn 0.000000 0.000000 -1.000000
vn 0.000000 0.000000 -1.000000
vn 0.000000 0.000000 -1.000000
vn 0.000000 -1.000000 0.000000
vn 0.000000 -1.000000 0.000000
vn 0.000000 -1.000000 0.000000
vn 0.000000 -1.000000 0.000000
vn 0.000000 0.000000 1.000000
vn 0.000000 0.000000 1.000000
vn 0.000000 0.000000 1.000000
vn 0.000000 0.000000 1.000000
vn 0.000000 1.000000 0.000000
vn 0.000000 1.000000 0.000000
vn 0.000000 1.000000 0.000000
vn 0.000000 1.000000 0.000000
vn -1.000000 0.000000 0.000000
vn -1.000000 0.000000 0.000000
vn -1.000000 0.000000 0.000000
vn -1.000000 0.000000 0.000000
vn 1.000000 0.000000 0.000000
vn 1.000000 0.000000 0.000000
vn 1.000000 0.000000 0.000000
vn 1.000000 0.000000 0.000000
vn 0.000000 -1.000000 0.000000
vn 0.000000 -1.000000 0.000000
vn 0.000000 -1.000000 0.000000
vn 0.000000 -1.000000 0.000000
vn 1.000000 -0.000001 0.000000
vn 1.000000 -0.000001 0.000000
vn 1.000000 -0.000001 0.000000
vn 1.000000 -0.000001 0.000000
vn 0.000000 1.000000 0.000000
vn 0.000000 1.000000 0.000000
vn 0.000000 1.000000 0.000000
vn 0.000000 1.000000 0.000000
vn -1.000000 0.000000 0.000000
vn -1.000000 0.000000 0.000000
vn -1.000000 0.000000 0.000000
vn -1.000000 0.000000 0.000000
vn 0.000000 -1.000000 0.000000
vn 0.000000 -1.000000 0.000000
vn 0.000000 -1.000000 0.000000
vn 0.000000 -1.000000 0.000000
vn 1.000000 0.000000 0.000000
vn 1.000000 0.000000 0.000000
vn 1.000000 0.000000 0.000000
vn 1.000000 0.000000 0.000000
vn 0.000000 1.000000 0.000000
vn 0.000000 1.000000 0.000000
vn 0.000000 1.000000 0.000000
vn 0.000000 1.000000 0.000000
vn 0.000000 0.000000 1.000000
vn 0.000000 0.000000 1.000000
vn 0.000000 0.000000 1.000000
vn 0.000000 0.000000 1.000000
vn 0.000000 -1.000000 -0.000001
vn 0.000000 -1.000000 -0.000001
vn 0.000000 -1.000000 -0.000001
vn 0.000000 -1.000000 -0.000001
vn 0.000000 -0.786490 0.617603
vn 0.000000 -0.786490 0.617603
vn 0.000000 -0.786490 0.617603
vn 0.000000 -0.786490 0.617603
vn 1.000000 0.000000 0.000000
vn 1.000000 0.000000 0.000000
vn 1.000000 0.000000 0.000000
vn 1.000000 0.000000 0.000000
vn 0.000000 -1.000000 0.000000
vn 0.000000 -1.000000 0.000000
vn 0.000000 -1.000000 0.000000
vn 0.000000 -1.000000 0.000000
vn 0.616246 -0.787553 0.000000
vn 0.616246 -0.787553 0.000000
vn 0.616246 -0.787553 0.000000
vn 0.616246 -0.787553 0.000000
vn 0.000000 0.000000 -1.000000
vn 0.000000 0.000000 -1.000000
vn 0.000000 0.000000 -1.000000
vn 0.000000 0.000000 -1.000000
vn 0.000000 -1.000000 0.000001
vn 0.000000 -1.000000 0.000001
vn 0.000000 -1.000000 0.000001
vn 0.000000 -1.000000 0.000001
vn 0.000000 -0.786491 -0.617601
vn 0.000000 -0.786491 -0.617601
vn 0.000000 -0.786491 -0.617601
vn 0.000000 -0.786491 -0.617601
vn -1.000000 0.000000 0.000000
vn -1.000000 0.000000 0.000000
vn -1.000000 0.000000 0.000000
vn -1.000000 0.000000 0.000000
vn 0.000000 -1.000000 0.000000
vn 0.000000 -1.000000 0.000000
vn 0.000000 -1.000000 0.000000
vn 0.000000 -1.000000 0.000000
vn -0.616259 -0.787543 0.000000
vn -0.616259 -0.787543 0.000000
vn -0.616259 -0.787543 0.000000
vn -0.616259 -0.787543 0.000000
vn 0.000000 1.000000 0.000000
vn 0.000000 1.000000 0.000000
vn 0.000000 1.000000 0.000000
vn 0.000000 1.000000 0.000000
vn 0.616416 0.787421 0.000000
vn 0.616416 0.787421 0.000000
vn 0.616416 0.787421 0.000000
vn 0.616416 0.787421 0.000000
vn 1.000000 0.000000 0.000000
vn 1.000000 0.000000 0.000000
vn 1.000000 0.000000 0.000000
vn 1.000000 0.000000 0.000000
vn 0.000000 0.787420 -0.616417
vn 0.000000 0.787420 -0.616417
vn 0.000000 0.787420 -0.616417
vn 0.000000 0.787420 -0.616417
vn 0.000000 1.000000 0.000000
vn 0.000000 1.000000 0.000000
vn 0.000000 1.000000 0.000000
vn 0.000000 1.000000 0.000000
vn 0.000000 0.000000 -1.000000
vn 0.000000 0.000000 -1.000000
vn 0.000000 0.000000 -1.000000
vn 0.000000 0.000000 -1.000000
vn -0.000328 1.000000 0.000358
vn -0.000328 1.000000 0.000358
vn -0.000328 1.000000 0.000358
vn -0.000328 1.000000 0.000358
vn -0.616467 0.787381 0.000287
vn -0.616467 0.787381 0.000287
vn -0.616467 0.787381 0.000287
vn -0.616467 0.787381 0.000287
vn -1.000000 0.000000 0.000000
vn -1.000000 0.000000 0.000000
vn -1.000000 0.000000 0.000000
vn -1.000000 0.000000 0.000000
vn 0.000000 0.787420 0.616417
vn 0.000000 0.787420 0.616417
vn 0.000000 0.787420 0.616417
vn 0.000000 0.787420 0.616417
vn 0.000000 1.000000 0.000000
vn 0.000000 1.000000 0.000000
vn 0.000000 1.000000 0.000000
vn 0.000000 1.000000 0.000000
vn 0.000000 0.000000 1.000000
vn 0.000000 0.000000 1.000000
vn 0.000000 0.000000 1.000000
vn 0.000000 0.000000 1.000000
vn -0.000121 1.000000 -0.000320
vn -0.000121 1.000000 -0.000320
vn -0.000121 1.000000 -0.000320
vn -0.000121 1.000000 -0.000320
vn -0.616461 0.787386 -0.000262
vn -0.616461 0.787386 -0.000262
vn -0.616461 0.787386 -0.000262
vn -0.616461 0.787386 -0.000262
vn -1.000000 0.000000 0.000000
vn -1.000000 0.000000 0.000000
vn -1.000000 0.000000 0.000000
vn -1.000000 0.000000 0.000000
s off
g Mesh_Dinner_Hall01
usemtl lambert9SG
f 1/104/1 3/103/2 4/25/3 2/23/4
usemtl lambert8SG
f 11/19/5 5/5/6 6/6/7 10/18/8
usemtl lambert9SG
f 5/14/9 7/13/10 8/12/11 6/11/12
usemtl lambert14SG
f 7/7/13 12/8/14 9/9/15 8/10/16
usemtl lambert9SG
f 9/1/17 10/2/18 6/11/19 8/12/20
f 7/13/21 5/14/22 11/15/23 12/17/24
usemtl lambert8SG
f 15/27/25 11/19/26 10/18/27 14/26/28
usemtl lambert9SG
f 12/17/29 11/15/30 15/20/31 16/22/32
usemtl lambert14SG
f 9/9/33 12/8/34 16/16/35 13/21/36
usemtl lambert9SG
f 2/23/37 4/25/38 14/28/39 13/30/40
usemtl lambert8SG
f 3/3/41 15/27/42 14/26/43 4/4/44
usemtl lambert9SG
f 16/22/45 15/20/46 3/103/47 1/104/48
usemtl lambert14SG
f 13/21/49 16/16/50 1/24/51 2/29/52
usemtl lambert8SG
f 18/31/53 22/32/54 21/33/55 17/34/56
f 20/35/57 24/36/58 23/37/59 19/38/60
f 19/38/61 23/37/62 22/32/63 18/31/64
f 26/39/65 18/40/66 17/41/67 25/42/68
f 28/43/69 20/44/70 19/45/71 27/46/72
f 27/46/73 19/45/74 18/40/75 26/39/76
f 30/47/77 26/48/78 25/49/79 29/50/80
f 32/51/81 28/52/82 27/53/83 31/54/84
f 31/54/85 27/53/86 26/48/87 30/47/88
f 22/55/89 30/56/90 29/57/91 21/58/92
f 24/59/93 32/60/94 31/61/95 23/62/96
f 23/62/97 31/61/98 30/56/99 22/55/100
f 36/63/101 35/64/102 39/65/103 40/66/104
f 34/67/105 36/63/106 40/66/107 38/68/108
f 37/69/109 33/70/110 34/67/111 38/68/112
f 38/71/113 40/72/114 44/73/115 42/74/116
f 40/72/117 39/75/118 43/76/119 44/73/120
f 41/77/121 37/78/122 38/71/123 42/74/124
f 46/79/125 44/80/126 43/81/127 45/82/128
f 47/83/129 42/84/130 44/80/131 46/79/132
f 41/85/133 42/84/134 47/83/135 48/86/136
f 34/87/137 50/88/138 52/89/139 36/90/140
f 36/90/141 52/89/142 51/91/143 35/92/144
f 33/93/145 49/94/146 50/88/147 34/87/148
f 54/95/149 53/96/150 51/97/151 52/98/152
f 55/99/153 54/95/154 52/98/155 50/100/156
f 49/101/157 56/102/158 55/99/159 50/100/160
