# This file uses meters as units for non-parametric coordinates.

mtllib MainHallCollider01.mtl
g default
v -287.274323 165.519867 -1920.363281
v -287.274323 165.519867 -1583.989014
v -566.360291 337.415039 -1920.363281
v -566.360291 337.415039 -1583.989014
v -525.101318 -10.810928 -1166.457275
v -323.134766 -10.810928 -1011.262878
v -138.657974 -10.810928 -964.838440
v 525.092590 -10.810928 -1166.457275
v 323.134735 -10.810928 -1011.262878
v 138.658157 -10.810928 -964.838440
v -204.998703 168.900436 -1414.008545
v -132.048264 168.900436 -1400.514404
v -68.614197 168.900436 -1389.634521
v -0.004395 168.900436 -1385.890869
v -0.004395 -10.810928 -949.096191
v 204.989914 168.900436 -1414.008545
v 132.048248 168.900436 -1400.514404
v 68.614380 168.900436 -1389.634521
v 992.928223 337.462402 -1610.156006
v 683.065002 337.462402 -1610.156006
v 992.928223 506.398987 -1126.851563
v 683.065002 506.398987 -1126.851563
v -992.928223 337.462402 -1610.156006
v -683.065002 337.462402 -1610.156006
v -992.928223 506.398987 -1126.851563
v -683.065002 506.398987 -1126.851563
v 287.274323 165.519867 -1920.363281
v 287.274323 165.519867 -1583.989014
v 566.360291 337.415039 -1920.363281
v 566.360291 337.415039 -1583.989014
vt 0.000000 0.000000
vt 1.000000 0.000000
vt 1.000000 1.000000
vt 0.000000 1.000000
vt 0.000000 0.000000
vt 0.000000 1.000000
vt 1.000000 1.000000
vt 1.000000 0.000000
vt 0.000000 0.000000
vt 0.000000 1.000000
vt 1.000000 1.000000
vt 1.000000 0.000000
vt 0.000000 0.000000
vt 0.000000 1.000000
vt 1.000000 1.000000
vt 1.000000 0.000000
vt 0.000000 0.000000
vt 1.000000 0.000000
vt 1.000000 1.000000
vt 0.000000 1.000000
vt 0.000000 0.000000
vt 1.000000 0.000000
vt 1.000000 1.000000
vt 0.000000 1.000000
vt 0.000000 0.000000
vt 1.000000 0.000000
vt 1.000000 1.000000
vt 0.000000 1.000000
vt 0.000000 0.000000
vt 0.000000 1.000000
vt 1.000000 1.000000
vt 1.000000 0.000000
vt 0.000000 0.000000
vt 1.000000 0.000000
vt 1.000000 1.000000
vt 0.000000 1.000000
vt 0.000000 0.000000
vt 0.000000 1.000000
vt 1.000000 1.000000
vt 1.000000 0.000000
vn 0.524429 0.851454 0.000000
vn 0.524429 0.851454 0.000000
vn 0.524429 0.851454 0.000000
vn 0.524429 0.851454 0.000000
vn -0.212097 0.914075 0.345661
vn -0.212097 0.914075 0.345661
vn -0.212097 0.914075 0.345661
vn -0.212097 0.914075 0.345661
vn -0.087542 0.921361 0.378723
vn -0.087542 0.921361 0.378723
vn -0.087542 0.921361 0.378723
vn -0.087542 0.921361 0.378723
vn -0.035939 0.923353 0.382266
vn -0.035939 0.923353 0.382266
vn -0.035939 0.923353 0.382266
vn -0.035939 0.923353 0.382266
vn 0.212106 0.914076 0.345654
vn 0.212106 0.914076 0.345654
vn 0.212106 0.914076 0.345654
vn 0.212106 0.914076 0.345654
vn 0.087542 0.921361 0.378723
vn 0.087542 0.921361 0.378723
vn 0.087542 0.921361 0.378723
vn 0.087542 0.921361 0.378723
vn 0.035935 0.923353 0.382266
vn 0.035935 0.923353 0.382266
vn 0.035935 0.923353 0.382266
vn 0.035935 0.923353 0.382266
vn 0.000000 0.943992 -0.329968
vn 0.000000 0.943992 -0.329968
vn 0.000000 0.943992 -0.329968
vn 0.000000 0.943992 -0.329968
vn 0.000000 0.943992 -0.329968
vn 0.000000 0.943992 -0.329968
vn 0.000000 0.943992 -0.329968
vn 0.000000 0.943992 -0.329968
vn -0.524429 0.851454 0.000000
vn -0.524429 0.851454 0.000000
vn -0.524429 0.851454 0.000000
vn -0.524429 0.851454 0.000000
s off
g Main_Hall_Collider01
usemtl initialShadingGroup
f 3/1/1 4/2/2 2/3/3 1/4/4
f 11/5/5 5/6/6 6/7/7 12/8/8
f 12/9/9 6/10/10 7/11/11 13/12/12
f 13/13/13 7/14/14 15/15/15 14/16/16
f 16/17/17 17/18/18 9/19/19 8/20/20
f 17/21/21 18/22/22 10/23/23 9/24/24
f 18/25/25 14/26/26 15/27/27 10/28/28
f 21/29/29 19/30/30 20/31/31 22/32/32
f 25/33/33 26/34/34 24/35/35 23/36/36
f 29/37/37 27/38/38 28/39/39 30/40/40
