# This file uses centimeters as units for non-parametric coordinates.

mtllib MainHallCollider01.mtl
g default
v -2.872742 1.655197 -19.203613
v -2.872742 1.655197 -15.839844
v -5.663574 3.374146 -19.203613
v -5.663574 3.374146 -15.839844
v -5.251068 -0.108109 -11.664429
v -3.231354 -0.108109 -10.112671
v -1.386581 -0.108109 -9.648438
v 5.250916 -0.108109 -11.664429
v 3.231354 -0.108109 -10.112671
v 1.386581 -0.108109 -9.648438
v -2.049988 1.689011 -14.140137
v -1.320480 1.689011 -14.005127
v -0.686142 1.689011 -13.896362
v -0.000044 1.689011 -13.859009
v -0.000044 -0.108109 -9.490967
v 2.049896 1.689011 -14.140137
v 1.320480 1.689011 -14.005127
v 0.686142 1.689011 -13.896362
v 9.929260 3.374634 -16.101440
v 6.830627 3.374634 -16.101440
v 9.929260 5.063995 -11.268555
v 6.830627 5.063995 -11.268555
v -9.929260 3.374634 -16.101440
v -6.830627 3.374634 -16.101440
v -9.929260 5.063995 -11.268555
v -6.830627 5.063995 -11.268555
v 2.872742 1.655197 -19.203613
v 2.872742 1.655197 -15.839844
v 5.663574 3.374146 -19.203613
v 5.663574 3.374146 -15.839844
vt 0.000000 0.000000
vt 1.000000 0.000000
vt 1.000000 1.000000
vt 0.000000 1.000000
vt 0.000000 0.000000
vt 0.000000 1.000000
vt 1.000000 1.000000
vt 1.000000 0.000000
vt 0.000000 0.000000
vt 0.000000 1.000000
vt 1.000000 1.000000
vt 1.000000 0.000000
vt 0.000000 0.000000
vt 0.000000 1.000000
vt 1.000000 1.000000
vt 1.000000 0.000000
vt 0.000000 0.000000
vt 1.000000 0.000000
vt 1.000000 1.000000
vt 0.000000 1.000000
vt 0.000000 0.000000
vt 1.000000 0.000000
vt 1.000000 1.000000
vt 0.000000 1.000000
vt 0.000000 0.000000
vt 1.000000 0.000000
vt 1.000000 1.000000
vt 0.000000 1.000000
vt 0.000000 0.000000
vt 0.000000 1.000000
vt 1.000000 1.000000
vt 1.000000 0.000000
vt 0.000000 0.000000
vt 1.000000 0.000000
vt 1.000000 1.000000
vt 0.000000 1.000000
vt 0.000000 0.000000
vt 0.000000 1.000000
vt 1.000000 1.000000
vt 1.000000 0.000000
vn 0.524432 0.851452 0.000000
vn 0.524432 0.851452 0.000000
vn 0.524432 0.851452 0.000000
vn 0.524432 0.851452 0.000000
vn -0.212081 0.914077 0.345666
vn -0.212081 0.914077 0.345666
vn -0.212081 0.914077 0.345666
vn -0.212081 0.914077 0.345666
vn -0.087536 0.921359 0.378729
vn -0.087536 0.921359 0.378729
vn -0.087536 0.921359 0.378729
vn -0.087536 0.921359 0.378729
vn -0.035932 0.923354 0.382265
vn -0.035932 0.923354 0.382265
vn -0.035932 0.923354 0.382266
vn -0.035932 0.923354 0.382266
vn 0.212095 0.914077 0.345658
vn 0.212095 0.914077 0.345658
vn 0.212095 0.914077 0.345658
vn 0.212095 0.914077 0.345658
vn 0.087536 0.921359 0.378729
vn 0.087536 0.921359 0.378729
vn 0.087536 0.921359 0.378729
vn 0.087536 0.921359 0.378729
vn 0.035929 0.923354 0.382266
vn 0.035929 0.923354 0.382266
vn 0.035929 0.923354 0.382266
vn 0.035929 0.923354 0.382266
vn 0.000000 0.943989 -0.329977
vn 0.000000 0.943989 -0.329977
vn 0.000000 0.943989 -0.329977
vn 0.000000 0.943989 -0.329977
vn 0.000000 0.943989 -0.329977
vn 0.000000 0.943989 -0.329977
vn 0.000000 0.943989 -0.329977
vn 0.000000 0.943989 -0.329977
vn -0.524432 0.851452 0.000000
vn -0.524432 0.851452 0.000000
vn -0.524432 0.851452 0.000000
vn -0.524432 0.851452 0.000000
s off
g Main_Hall_Collider01
usemtl initialShadingGroup
f 3/1/1 4/2/2 2/3/3 1/4/4
f 11/5/5 5/6/6 6/7/7 12/8/8
f 12/9/9 6/10/10 7/11/11 13/12/12
f 13/13/13 7/14/14 15/15/15 14/16/16
f 16/17/17 17/18/18 9/19/19 8/20/20
f 17/21/21 18/22/22 10/23/23 9/24/24
f 18/25/25 14/26/26 15/27/27 10/28/28
f 21/29/29 19/30/30 20/31/31 22/32/32
f 25/33/33 26/34/34 24/35/35 23/36/36
f 29/37/37 27/38/38 28/39/39 30/40/40
