# This file uses centimeters as units for non-parametric coordinates.

mtllib PictureFram_Square01.mtl
g default
v -1.215864 -0.023160 1.215864
v 1.215864 -0.023160 1.215864
v -1.175128 0.023160 1.175128
v 1.175128 0.023160 1.175128
v -1.175128 0.023160 -1.175128
v 1.175128 0.023160 -1.175128
v -1.215864 -0.023160 -1.215864
v 1.215864 -0.023160 -1.215864
v -1.078007 0.023160 1.078007
v 1.078007 0.023160 1.078007
v 1.078007 0.023160 -1.078007
v -1.078007 0.023160 -1.078007
v -1.034609 -0.001085 1.034609
v 1.034609 -0.001085 1.034609
v 1.034609 -0.001085 -1.034609
v -1.034609 -0.001085 -1.034609
v -1.034609 -0.004896 1.034609
v 1.034609 -0.004896 1.034609
v 1.034609 -0.004896 -1.034609
v -1.034609 -0.004896 -1.034609
v -0.945271 -0.004896 0.945271
v 0.945271 -0.004896 0.945271
v 0.945271 -0.004896 -0.945271
v -0.945271 -0.004896 -0.945271
v -0.945271 0.010800 0.945271
v 0.945271 0.010800 0.945271
v 0.945271 0.010800 -0.945271
v -0.945271 0.010800 -0.945271
v -0.924142 0.010800 0.924142
v 0.924142 0.010800 0.924142
v 0.924142 0.010800 -0.924142
v -0.924142 0.010800 -0.924142
v -0.879178 -0.014587 0.879178
v 0.879178 -0.014587 0.879178
v 0.879178 -0.014587 -0.879178
v -0.879178 -0.014587 -0.879178
vt 0.992261 0.007588
vt 0.992412 0.992262
vt 0.970964 0.970853
vt 0.970853 0.029035
vt 0.843662 0.156489
vt 0.843511 0.843663
vt 0.156337 0.843511
vt 0.156489 0.156338
vt 0.029035 0.029147
vt 0.029147 0.970965
vt 0.007738 0.992412
vt 0.007588 0.007738
vt 0.932656 0.932621
vt 0.932621 0.067344
vt 0.067379 0.932657
vt 0.067343 0.067379
vt 0.913449 0.913457
vt 0.913458 0.086551
vt 0.086542 0.913449
vt 0.086550 0.086542
vt 0.911400 0.911391
vt 0.911389 0.088601
vt 0.088611 0.911400
vt 0.088601 0.088610
vt 0.876536 0.876610
vt 0.876610 0.123464
vt 0.123390 0.876536
vt 0.123464 0.123390
vt 0.872153 0.872222
vt 0.872222 0.127847
vt 0.127778 0.872153
vt 0.127847 0.127778
vt 0.863653 0.863744
vt 0.863744 0.136347
vt 0.136255 0.863653
vt 0.136347 0.136256
vn 0.000000 0.660397 0.750916
vn 0.000000 0.660397 0.750916
vn 0.000000 0.660397 0.750916
vn 0.000000 0.660397 0.750916
vn 0.000000 1.000000 0.000000
vn 0.000000 1.000000 0.000000
vn 0.000000 1.000000 0.000000
vn 0.000000 1.000000 0.000000
vn 0.000000 0.660397 -0.750916
vn 0.000000 0.660397 -0.750916
vn 0.000000 0.660397 -0.750916
vn 0.000000 0.660397 -0.750916
vn 0.750917 0.660397 0.000000
vn 0.750917 0.660397 0.000000
vn 0.750917 0.660397 0.000000
vn 0.750917 0.660397 0.000000
vn -0.750917 0.660397 0.000000
vn -0.750917 0.660397 0.000000
vn -0.750917 0.660397 0.000000
vn -0.750917 0.660397 0.000000
vn 0.000000 1.000000 0.000000
vn 0.000000 1.000000 0.000000
vn 0.000000 1.000000 0.000000
vn 0.000000 1.000000 0.000000
vn 0.000000 1.000000 0.000000
vn 0.000000 1.000000 0.000000
vn 0.000000 1.000000 0.000000
vn 0.000000 1.000000 0.000000
vn 0.000000 1.000000 -0.000000
vn 0.000000 1.000000 -0.000000
vn 0.000000 1.000000 -0.000000
vn 0.000000 1.000000 -0.000000
vn 0.000000 1.000000 0.000000
vn 0.000000 1.000000 0.000000
vn 0.000000 1.000000 0.000000
vn 0.000000 1.000000 0.000000
vn 0.000000 0.873005 -0.487711
vn 0.000000 0.873005 -0.487711
vn 0.000000 0.873005 -0.487711
vn 0.000000 0.873005 -0.487711
vn -0.487712 0.873005 0.000000
vn -0.487712 0.873005 0.000000
vn -0.487712 0.873005 0.000000
vn -0.487712 0.873005 0.000000
vn 0.000000 0.873005 0.487711
vn 0.000000 0.873005 0.487711
vn 0.000000 0.873005 0.487711
vn 0.000000 0.873005 0.487711
vn 0.487712 0.873005 0.000000
vn 0.487712 0.873005 0.000000
vn 0.487712 0.873005 0.000000
vn 0.487712 0.873005 0.000000
vn 0.000000 0.000000 -1.000000
vn 0.000000 0.000000 -1.000000
vn 0.000000 0.000000 -1.000000
vn 0.000000 0.000000 -1.000000
vn -1.000000 0.000000 0.000000
vn -1.000000 0.000000 0.000000
vn -1.000000 0.000000 0.000000
vn -1.000000 0.000000 0.000000
vn 0.000000 0.000000 1.000000
vn 0.000000 0.000000 1.000000
vn 0.000000 0.000000 1.000000
vn 0.000000 0.000000 1.000000
vn 1.000000 0.000000 0.000000
vn 1.000000 0.000000 0.000000
vn 1.000000 0.000000 0.000000
vn 1.000000 0.000000 0.000000
vn 0.000000 1.000000 -0.000000
vn 0.000000 1.000000 -0.000000
vn 0.000000 1.000000 -0.000000
vn 0.000000 1.000000 -0.000000
vn 0.000000 1.000000 0.000000
vn 0.000000 1.000000 0.000000
vn 0.000000 1.000000 0.000000
vn 0.000000 1.000000 0.000000
vn 0.000000 1.000000 0.000000
vn 0.000000 1.000000 0.000000
vn 0.000000 1.000000 0.000000
vn 0.000000 1.000000 0.000000
vn 0.000000 1.000000 0.000000
vn 0.000000 1.000000 0.000000
vn 0.000000 1.000000 0.000000
vn 0.000000 1.000000 0.000000
vn 0.000000 0.000000 1.000000
vn 0.000000 0.000000 1.000000
vn 0.000000 0.000000 1.000000
vn 0.000000 0.000000 1.000000
vn 1.000000 0.000000 0.000000
vn 1.000000 0.000000 0.000000
vn 1.000000 0.000000 0.000000
vn 1.000000 0.000000 0.000000
vn 0.000000 0.000000 -1.000000
vn 0.000000 0.000000 -1.000000
vn 0.000000 0.000000 -1.000000
vn 0.000000 0.000000 -1.000000
vn -1.000000 0.000000 0.000000
vn -1.000000 0.000000 0.000000
vn -1.000000 0.000000 0.000000
vn -1.000000 0.000000 0.000000
vn 0.000000 1.000000 0.000000
vn 0.000000 1.000000 0.000000
vn 0.000000 1.000000 0.000000
vn 0.000000 1.000000 0.000000
vn 0.000000 1.000000 0.000000
vn 0.000000 1.000000 0.000000
vn 0.000000 1.000000 0.000000
vn 0.000000 1.000000 0.000000
vn 0.000000 1.000000 -0.000000
vn 0.000000 1.000000 -0.000000
vn 0.000000 1.000000 -0.000000
vn 0.000000 1.000000 -0.000000
vn 0.000000 1.000000 0.000000
vn 0.000000 1.000000 0.000000
vn 0.000000 1.000000 0.000000
vn 0.000000 1.000000 0.000000
vn 0.000000 0.870788 -0.491659
vn 0.000000 0.870788 -0.491659
vn 0.000000 0.870788 -0.491659
vn 0.000000 0.870788 -0.491659
vn -0.491659 0.870788 0.000000
vn -0.491659 0.870788 0.000000
vn -0.491659 0.870788 0.000000
vn -0.491659 0.870788 0.000000
vn 0.000000 0.870788 0.491659
vn 0.000000 0.870788 0.491659
vn 0.000000 0.870788 0.491659
vn 0.000000 0.870788 0.491659
vn 0.491659 0.870788 0.000000
vn 0.491659 0.870788 0.000000
vn 0.491659 0.870788 0.000000
vn 0.491659 0.870788 0.000000
s off
g Mesh_Picture_Frame_Square01
usemtl initialShadingGroup
f 1/1/1 2/2/2 4/3/3 3/4/4
f 33/5/5 34/6/6 35/7/7 36/8/8
f 5/9/9 6/10/10 8/11/11 7/12/12
f 2/2/13 8/11/14 6/10/15 4/3/16
f 7/12/17 1/1/18 3/4/19 5/9/20
f 3/4/21 4/3/22 10/13/23 9/14/24
f 4/3/25 6/10/26 11/15/27 10/13/28
f 6/10/29 5/9/30 12/16/31 11/15/32
f 5/9/33 3/4/34 9/14/35 12/16/36
f 9/14/37 10/13/38 14/17/39 13/18/40
f 10/13/41 11/15/42 15/19/43 14/17/44
f 11/15/45 12/16/46 16/20/47 15/19/48
f 12/16/49 9/14/50 13/18/51 16/20/52
f 13/18/53 14/17/54 18/21/55 17/22/56
f 14/17/57 15/19/58 19/23/59 18/21/60
f 15/19/61 16/20/62 20/24/63 19/23/64
f 16/20/65 13/18/66 17/22/67 20/24/68
f 17/22/69 18/21/70 22/25/71 21/26/72
f 18/21/73 19/23/74 23/27/75 22/25/76
f 19/23/77 20/24/78 24/28/79 23/27/80
f 20/24/81 17/22/82 21/26/83 24/28/84
f 21/26/85 22/25/86 26/29/87 25/30/88
f 22/25/89 23/27/90 27/31/91 26/29/92
f 23/27/93 24/28/94 28/32/95 27/31/96
f 24/28/97 21/26/98 25/30/99 28/32/100
f 25/30/101 26/29/102 30/33/103 29/34/104
f 26/29/105 27/31/106 31/35/107 30/33/108
f 27/31/109 28/32/110 32/36/111 31/35/112
f 28/32/113 25/30/114 29/34/115 32/36/116
f 29/34/117 30/33/118 34/6/119 33/5/120
f 30/33/121 31/35/122 35/7/123 34/6/124
f 31/35/125 32/36/126 36/8/127 35/7/128
f 32/36/129 29/34/130 33/5/131 36/8/132
